<?xml version="1.0" standalone="no"?>
<!DOCTYPE svg PUBLIC "-//W3C//DTD SVG 20010904//EN"
 "http://www.w3.org/TR/2001/REC-SVG-20010904/DTD/svg10.dtd">
<svg version="1.0" xmlns="http://www.w3.org/2000/svg"
 width="1920.000000pt" height="1293.000000pt" viewBox="0 0 1920.000000 1293.000000"
 preserveAspectRatio="xMidYMid meet">

<g transform="translate(0.000000,1293.000000) scale(0.100000,-0.100000)"
fill="#000000" stroke="none">
<path d="M0 6465 l0 -6465 1129 0 c808 0 1132 3 1137 11 4 7 20 8 43 5 102
-18 111 -19 111 -3 0 32 55 31 93 -1 16 -14 19 -14 32 4 8 10 15 24 15 30 0
12 75 24 147 24 32 0 50 -7 83 -35 41 -34 60 -37 60 -11 0 7 13 27 28 44 31
34 86 49 145 38 36 -7 107 -67 107 -91 0 -8 6 -15 13 -15 8 0 11 17 9 60 -3
43 0 61 10 65 15 6 85 14 178 21 66 5 140 30 140 46 0 18 53 66 67 61 8 -3 20
-18 28 -34 11 -20 25 -30 49 -35 19 -3 37 -12 40 -20 8 -20 -14 -74 -29 -74
-7 0 -20 -20 -28 -45 l-16 -45 197 0 197 0 -1 70 c-1 48 3 73 12 81 8 6 14 17
14 23 0 6 13 25 28 42 21 23 41 33 75 38 47 7 47 7 47 47 0 21 4 39 9 39 5 0
11 9 14 20 4 15 14 20 36 20 39 0 49 -22 58 -126 3 -41 8 -74 10 -74 8 0 33
28 33 37 1 4 12 21 25 38 22 27 30 30 97 32 71 3 74 3 97 -28 32 -41 42 -137
17 -158 -10 -9 -16 -29 -16 -57 l0 -44 76 0 77 0 -25 20 c-20 15 -26 31 -30
72 -3 29 -14 74 -26 100 -28 60 -28 64 8 83 17 9 29 19 26 24 -7 11 15 95 28
106 7 6 15 18 19 27 7 18 70 32 127 26 31 -3 35 -7 38 -35 4 -36 -17 -52 -67
-56 -24 -2 -31 -8 -35 -31 -8 -37 -1 -46 35 -46 26 0 29 -3 29 -34 0 -28 -5
-37 -29 -47 -33 -15 -41 -39 -41 -130 0 -45 -4 -60 -17 -68 -12 -7 2300 -10
7225 -11 l7242 0 0 3220 c0 1945 -4 3220 -9 3220 -5 0 -11 -6 -14 -12 -3 -9
-11 -7 -27 7 -12 11 -31 19 -41 17 -10 -2 -19 2 -19 7 0 6 -5 11 -10 11 -6 0
-10 -6 -9 -12 1 -7 1 -18 0 -24 -1 -14 -47 -35 -56 -26 -4 4 -11 7 -16 7 -5 0
-20 13 -33 30 -23 28 -25 29 -51 15 -25 -13 -28 -13 -41 5 -8 10 -14 24 -14
31 0 10 -21 24 -36 24 -3 0 -8 -9 -12 -20 -15 -41 -31 -4 -33 78 -2 103 4 112
81 112 l58 0 8 -77 c4 -43 7 -81 6 -85 -1 -3 5 -12 13 -18 13 -11 15 -4 15 49
0 68 19 124 47 139 10 6 34 12 53 14 28 2 35 -1 38 -17 7 -37 21 -39 53 -7 18
18 36 32 41 32 4 0 8 1397 8 3105 l0 3105 -8956 0 -8956 0 6 -32 c7 -36 8
-733 2 -1728 -2 -355 0 -600 4 -545 9 119 5 -935 -10 -2275 -11 -1120 -30
-4715 -30 -5891 l0 -805 -45 -32 -45 -32 -43 21 c-53 27 -110 100 -126 162
-11 47 -10 908 4 2857 5 683 7 859 20 1775 3 204 8 557 11 785 3 228 7 501 9
605 3 105 7 348 10 540 3 193 8 373 10 400 3 28 0 120 -6 205 -5 85 -10 193
-11 240 -3 103 14 707 37 1390 2 58 6 200 9 315 4 116 9 262 12 325 3 63 6
122 5 130 0 8 0 65 1 125 1 61 2 146 2 190 3 196 42 1163 48 1185 9 29 33 75
43 82 5 4 -263 8 -597 8 l-608 0 0 -6465z m5700 6341 c0 -66 6 -76 41 -66 18
5 29 5 29 -1 0 -6 9 -7 20 -4 11 4 20 2 20 -4 0 -6 7 -8 15 -5 12 5 15 -4 16
-47 2 -124 -3 -225 -14 -237 -13 -16 -52 -12 -53 6 -1 6 -3 13 -4 15 -1 1 -3
43 -5 92 -1 50 -4 91 -5 93 -2 2 -6 14 -9 29 0 3 -12 -4 -26 -17 -22 -20 -25
-32 -25 -89 0 -36 -5 -83 -11 -103 -8 -31 -14 -38 -36 -38 -18 0 -24 4 -20 15
4 8 2 17 -4 21 -6 3 -8 12 -5 20 3 7 2 15 -2 18 -12 7 -4 290 8 294 6 2 10 12
10 21 0 24 9 31 37 31 21 0 23 -5 23 -44z m-238 -13 c10 -9 18 -24 18 -35 0
-17 20 -24 58 -19 6 1 12 -4 12 -12 0 -18 -21 -37 -41 -37 -38 0 -49 -50 -34
-158 4 -29 11 -49 16 -46 6 3 16 0 24 -6 11 -9 15 -9 15 -1 0 6 5 11 10 11 15
0 12 -36 -5 -50 -8 -6 -36 -12 -62 -13 -40 -2 -48 1 -47 16 1 10 -7 19 -20 23
-21 5 -22 10 -20 72 2 36 6 72 8 79 9 23 -12 63 -33 63 -34 0 -35 20 -2 54 17
18 31 37 31 43 0 12 27 32 44 33 5 0 18 -7 28 -17z m634 -80 c3 -12 11 -20 18
-17 9 3 16 -15 22 -59 11 -74 4 -87 -49 -87 -64 0 -97 -11 -97 -32 0 -10 4
-17 9 -13 5 3 12 -3 16 -14 4 -14 13 -19 30 -17 14 2 28 6 32 9 13 14 25 6 20
-13 -6 -22 8 -28 16 -7 4 9 6 9 6 0 2 -24 -43 -43 -100 -43 -60 0 -75 6 -59
25 8 9 4 14 -16 19 -17 5 -24 12 -20 21 3 8 -2 18 -10 23 -23 13 -20 100 5
155 24 53 65 76 128 74 36 -2 45 -6 49 -24z m280 11 l34 -16 0 -128 c0 -71 -3
-135 -6 -144 -4 -10 -18 -16 -35 -16 -33 0 -31 -7 -34 137 0 56 -5 106 -9 110
-4 4 -19 -5 -32 -20 -21 -25 -24 -38 -24 -111 0 -93 -12 -120 -51 -114 -24 3
-24 3 -27 145 -4 162 -3 163 82 161 26 0 50 2 53 6 9 8 11 8 49 -10z m164 -21
c0 -5 -5 -15 -10 -23 -8 -12 -10 -11 -10 8 0 12 5 22 10 22 6 0 10 -3 10 -7z
m3510 -9 c0 -8 -5 -12 -10 -9 -6 4 -8 11 -5 16 9 14 15 11 15 -7z m-3140 -19
c0 -14 6 -25 13 -25 19 0 -15 -20 -36 -20 -14 0 -16 4 -8 19 8 14 7 20 -4 25
-24 9 -17 26 10 26 20 0 25 -5 25 -25z m115 15 c4 -6 -6 -10 -22 -10 -22 0
-25 2 -13 10 19 12 27 12 35 0z m215 0 c24 -15 4 -22 -41 -15 -29 5 -38 10
-28 16 18 11 50 11 69 -1z m266 0 c13 0 24 -4 24 -10 0 -5 -22 -10 -50 -10
-27 0 -50 4 -50 9 0 12 21 21 38 15 8 -2 25 -4 38 -4z m194 -36 c0 -24 -4 -34
-12 -31 -12 3 -18 41 -10 60 9 20 22 3 22 -29z m106 10 c-5 -20 -3 -24 11 -22
10 2 18 -3 17 -9 -1 -7 -2 -22 -2 -33 -1 -12 -9 -20 -19 -20 -13 0 -14 3 -5
12 16 16 15 28 -2 28 -8 0 -16 10 -18 23 -2 12 -9 22 -17 22 -30 0 -20 22 10
23 28 1 30 -2 25 -24z m242 8 c2 -8 -8 -12 -27 -12 -28 0 -39 9 -26 22 9 9 49
2 53 -10z m32 -66 c0 -41 -4 -77 -9 -81 -15 -9 -17 5 -13 83 5 95 22 93 22 -2z
m271 17 c-1 -29 -6 -64 -11 -80 -7 -22 -9 -12 -8 42 1 60 -1 70 -15 67 -10 -2
-17 4 -17 12 0 10 9 14 27 13 26 -2 27 -4 24 -54z m1185 17 c9 0 14 -11 14
-32 0 -17 -3 -28 -7 -24 -5 4 -8 12 -8 17 0 5 -4 9 -10 8 -5 0 -9 -7 -7 -15 2
-8 -2 -14 -7 -14 -10 0 -10 13 -1 85 2 18 3 18 7 -2 2 -13 11 -23 19 -23z
m-976 22 c0 -5 -13 -9 -30 -9 -16 0 -30 4 -30 9 0 4 14 8 30 8 17 0 30 -4 30
-8z m30 -7 c0 -8 -4 -15 -10 -15 -5 0 -10 7 -10 15 0 8 5 15 10 15 6 0 10 -7
10 -15z m240 0 c0 -8 -4 -15 -9 -15 -13 0 -22 16 -14 24 11 11 23 6 23 -9z
m30 -14 c0 -42 -14 -46 -17 -5 -2 19 2 34 7 34 6 0 10 -13 10 -29z m-2330 9
c0 -5 -5 -10 -11 -10 -5 0 -7 5 -4 10 3 6 8 10 11 10 2 0 4 -4 4 -10z m3520 0
c0 -5 -2 -10 -4 -10 -3 0 -8 5 -11 10 -3 6 -1 10 4 10 6 0 11 -4 11 -10z
m-2910 -10 c0 -5 -7 -10 -16 -10 -8 0 -12 5 -9 10 3 6 10 10 16 10 5 0 9 -4 9
-10z m138 -1 c-2 -6 -8 -10 -13 -10 -5 0 -11 4 -13 10 -2 6 4 11 13 11 9 0 15
-5 13 -11z m142 -4 c0 -8 -7 -15 -15 -15 -8 0 -15 7 -15 15 0 8 7 15 15 15 8
0 15 -7 15 -15z m520 -11 c0 -8 -5 -12 -10 -9 -6 4 -8 11 -5 16 9 14 15 11 15
-7z m308 -3 c2 -7 -3 -11 -14 -9 -14 2 -20 -5 -24 -27 -7 -37 -18 -22 -15 20
1 17 3 31 4 32 4 8 46 -6 49 -16z m-3618 -5 c0 -8 -4 -18 -10 -21 -5 -3 -10 3
-10 14 0 12 5 21 10 21 6 0 10 -6 10 -14z m3860 -22 c0 -45 -22 -41 -25 4 -2
22 2 32 11 32 9 0 14 -12 14 -36z m265 6 c-6 -9 -9 -9 -16 1 -10 17 0 34 13
21 6 -6 7 -16 3 -22z m1296 17 c-1 -4 -1 -18 -1 -32 0 -14 -4 -25 -10 -25 -5
0 -10 16 -10 36 0 21 4 34 11 32 6 -2 10 -7 10 -11z m-3511 -5 c0 -13 -12 -22
-22 -16 -10 6 -1 24 13 24 5 0 9 -4 9 -8z m2350 -13 c0 -5 -4 -9 -10 -9 -5 0
-10 7 -10 16 0 8 5 12 10 9 6 -3 10 -10 10 -16z m-1990 7 c0 -2 -7 -6 -15 -10
-8 -3 -15 -1 -15 4 0 6 7 10 15 10 8 0 15 -2 15 -4z m223 -16 c15 -18 53 -25
116 -23 7 1 9 -2 5 -7 -5 -4 -44 -10 -87 -12 -76 -5 -78 -4 -73 16 3 12 6 27
6 34 0 18 13 15 33 -8z m147 10 c0 -5 -5 -10 -11 -10 -5 0 -7 5 -4 10 3 6 8
10 11 10 2 0 4 -4 4 -10z m150 -5 c0 -8 -4 -15 -9 -15 -13 0 -22 16 -14 24 11
11 23 6 23 -9z m246 -13 c-3 -10 -7 -50 -8 -90 -2 -58 -5 -69 -15 -56 -10 14
-12 13 -15 -6 -2 -11 -7 -21 -13 -20 -19 1 -5 86 16 100 5 3 9 23 10 45 1 22
4 43 6 48 8 14 24 -5 19 -21z m1554 13 c0 -8 -2 -15 -4 -15 -2 0 -6 7 -10 15
-3 8 -1 15 4 15 6 0 10 -7 10 -15z m40 6 c0 -6 -4 -13 -10 -16 -5 -3 -10 1
-10 9 0 9 5 16 10 16 6 0 10 -4 10 -9z m30 0 c0 -6 -4 -13 -10 -16 -5 -3 -10
1 -10 9 0 9 5 16 10 16 6 0 10 -4 10 -9z m30 -7 c0 -8 -4 -12 -10 -9 -5 3 -10
10 -10 16 0 5 5 9 10 9 6 0 10 -7 10 -16z m38 5 c-2 -6 -8 -10 -13 -10 -5 0
-11 4 -13 10 -2 6 4 11 13 11 9 0 15 -5 13 -11z m32 2 c0 -6 -4 -13 -10 -16
-5 -3 -10 1 -10 9 0 9 5 16 10 16 6 0 10 -4 10 -9z m34 -6 c-4 -8 -10 -15 -15
-15 -5 0 -9 7 -9 15 0 8 7 15 15 15 9 0 12 -6 9 -15z m36 6 c0 -6 -4 -13 -10
-16 -5 -3 -10 1 -10 9 0 9 5 16 10 16 6 0 10 -4 10 -9z m30 -6 c0 -8 -4 -15
-10 -15 -5 0 -10 7 -10 15 0 8 5 15 10 15 6 0 10 -7 10 -15z m-1550 -10 c0 -8
-4 -15 -9 -15 -13 0 -22 16 -14 24 11 11 23 6 23 -9z m1637 -7 c-3 -8 -6 -5
-6 6 -1 11 2 17 5 13 3 -3 4 -12 1 -19z m-830 -40 c4 1 8 -4 8 -10 0 -7 -8
-12 -17 -10 -16 2 -18 -6 -18 -63 0 -40 -4 -65 -11 -65 -6 0 -9 17 -8 42 3 33
0 43 -16 49 -20 7 -18 10 7 13 9 1 12 14 10 38 -5 52 9 70 24 33 7 -17 16 -29
21 -27z m138 33 c3 -5 1 -12 -5 -16 -5 -3 -10 1 -10 9 0 18 6 21 15 7z m-2358
-23 c-3 -8 -6 -5 -6 6 -1 11 2 17 5 13 3 -3 4 -12 1 -19z m962 13 c27 -18 2
-29 -40 -19 -28 8 -37 13 -27 19 17 11 49 11 67 0z m326 -11 c3 -5 1 -10 -4
-10 -6 0 -11 -11 -11 -25 0 -14 -4 -25 -9 -25 -14 0 -23 18 -12 24 5 3 7 15 4
26 -6 21 20 29 32 10z m93 -45 c-4 -67 -23 -73 -24 -7 0 52 2 62 17 62 5 0 8
-24 7 -55z m633 37 c10 2 13 -5 12 -25 -1 -15 2 -25 8 -22 5 4 9 16 10 28 1
19 2 18 9 -5 5 -16 5 -40 0 -55 -7 -25 -8 -25 -9 -5 -1 27 -21 30 -21 2 0 -11
-3 -20 -7 -20 -5 0 -8 19 -8 42 0 35 -3 42 -17 40 -10 -2 -18 3 -18 11 0 19
12 29 20 17 4 -6 13 -10 21 -8z m1044 9 c3 -5 1 -12 -5 -16 -5 -3 -10 1 -10 9
0 18 6 21 15 7z m-1390 -11 c17 -7 17 -9 3 -9 -12 -1 -18 -10 -20 -28 -2 -47
-3 -51 -11 -59 -4 -5 -7 18 -6 49 1 31 5 57 8 56 3 0 15 -4 26 -9z m1820 -1
c10 -15 2 -19 -24 -12 -17 4 -19 8 -9 14 18 12 26 11 33 -2z m-1225 -15 c0 -8
-4 -12 -10 -9 -5 3 -10 10 -10 16 0 5 5 9 10 9 6 0 10 -7 10 -16z m34 1 c-4
-8 -10 -12 -15 -9 -14 8 -10 24 6 24 9 0 12 -6 9 -15z m36 6 c0 -6 -4 -13 -10
-16 -5 -3 -10 1 -10 9 0 9 5 16 10 16 6 0 10 -4 10 -9z m-1773 -23 c-3 -8 -6
-5 -6 6 -1 11 2 17 5 13 3 -3 4 -12 1 -19z m433 2 c0 -5 -4 -10 -9 -10 -5 0
-16 -3 -25 -6 -11 -4 -16 -1 -16 10 0 10 9 16 25 16 14 0 25 -4 25 -10z m2063
-22 c-8 -46 -13 -48 -13 -5 0 21 4 37 10 37 5 0 7 -14 3 -32z m-1513 12 c0 -5
-4 -10 -10 -10 -5 0 -10 5 -10 10 0 6 5 10 10 10 6 0 10 -4 10 -10z m245 -28
c-2 -15 -4 -31 -4 -35 -1 -5 -5 -5 -11 -2 -9 6 -11 51 -3 68 9 16 21 -5 18
-31z m1733 -63 c-3 -49 -8 -89 -13 -89 -6 0 -10 151 -5 188 0 2 5 0 11 -3 7
-5 9 -39 7 -96z m-3498 71 c0 -5 -5 -10 -11 -10 -5 0 -7 5 -4 10 3 6 8 10 11
10 2 0 4 -4 4 -10z m2666 -17 c-10 -10 -19 5 -10 18 6 11 8 11 12 0 2 -7 1
-15 -2 -18z m44 19 c0 -13 -12 -22 -22 -16 -10 6 -1 24 13 24 5 0 9 -4 9 -8z
m30 -1 c0 -6 -4 -13 -10 -16 -5 -3 -10 1 -10 9 0 9 5 16 10 16 6 0 10 -4 10
-9z m30 -6 c0 -8 -4 -15 -10 -15 -5 0 -10 7 -10 15 0 8 5 15 10 15 6 0 10 -7
10 -15z m30 0 c0 -8 -4 -15 -10 -15 -5 0 -10 7 -10 15 0 8 5 15 10 15 6 0 10
-7 10 -15z m40 8 c0 -5 -5 -15 -10 -23 -8 -12 -10 -11 -10 8 0 12 5 22 10 22
6 0 10 -3 10 -7z m30 -7 c0 -8 -4 -18 -10 -21 -5 -3 -10 3 -10 14 0 12 5 21
10 21 6 0 10 -6 10 -14z m96 2 c3 -4 12 -4 20 -1 9 3 14 -1 14 -11 0 -10 -7
-16 -17 -14 -13 2 -18 -6 -20 -36 -5 -57 -13 -58 -13 -2 0 38 -3 47 -15 43
-16 -7 -29 8 -21 21 6 10 42 9 52 0z m-2662 -5 c-5 -5 -12 -12 -16 -18 -4 -6
-8 -2 -8 8 0 9 7 17 17 17 9 0 12 -3 7 -7z m636 -3 c0 -5 -4 -10 -10 -10 -5 0
-10 5 -10 10 0 6 5 10 10 10 6 0 10 -4 10 -10z m275 1 c3 -5 1 -12 -5 -16 -5
-3 -10 1 -10 9 0 18 6 21 15 7z m1685 -1 c0 -5 -4 -10 -10 -10 -5 0 -10 5 -10
10 0 6 5 10 10 10 6 0 10 -4 10 -10z m-1410 -10 c0 -5 -4 -10 -10 -10 -5 0
-10 5 -10 10 0 6 5 10 10 10 6 0 10 -4 10 -10z m-1460 -25 c0 -2 -7 -5 -15 -9
-9 -3 -15 0 -15 9 0 9 6 12 15 9 8 -4 15 -7 15 -9z m825 -5 c17 -7 15 -9 -12
-9 -18 -1 -33 4 -33 9 0 12 17 12 45 0z m320 -10 c-2 -3 -14 -6 -27 -4 -31 3
-30 3 -24 13 3 4 17 6 31 4 13 -3 23 -9 20 -13z m215 0 c0 -5 -4 -10 -10 -10
-5 0 -10 5 -10 10 0 6 5 10 10 10 6 0 10 -4 10 -10z m30 0 c0 -5 -4 -10 -10
-10 -5 0 -10 5 -10 10 0 6 5 10 10 10 6 0 10 -4 10 -10z m480 -5 c0 -8 -4 -15
-10 -15 -5 0 -10 7 -10 15 0 8 5 15 10 15 6 0 10 -7 10 -15z m1100 11 c0 -3
-4 -8 -10 -11 -5 -3 -10 -1 -10 4 0 6 5 11 10 11 6 0 10 -2 10 -4z m-1240 -16
c0 -5 -5 -10 -11 -10 -5 0 -7 5 -4 10 3 6 8 10 11 10 2 0 4 -4 4 -10z m170 -5
c0 -8 -2 -15 -4 -15 -2 0 -6 7 -10 15 -3 8 -1 15 4 15 6 0 10 -7 10 -15z m35
5 c3 -5 1 -10 -4 -10 -6 0 -11 5 -11 10 0 6 2 10 4 10 3 0 8 -4 11 -10z m235
-6 c0 -8 -5 -12 -10 -9 -6 4 -8 11 -5 16 9 14 15 11 15 -7z m40 -5 c0 -5 -4
-9 -10 -9 -5 0 -10 7 -10 16 0 8 5 12 10 9 6 -3 10 -10 10 -16z m1273 -116
c-7 -2 -19 -2 -25 0 -7 3 -2 5 12 5 14 0 19 -2 13 -5z m-1283 -219 c0 -8 -4
-12 -10 -9 -5 3 -10 10 -10 16 0 5 5 9 10 9 6 0 10 -7 10 -16z m583 -26 c9 -5
17 -15 17 -23 0 -8 -8 -16 -17 -17 -10 0 -22 -2 -28 -3 -5 -2 -19 -3 -31 -4
-11 0 -21 -7 -21 -13 0 -7 -2 -17 -3 -23 -9 -37 2 -62 33 -76 43 -19 42 -43
-2 -49 -39 -6 -39 -6 -42 -122 -2 -66 -5 -77 -22 -82 -10 -2 -25 -2 -32 0 -17
7 -28 67 -20 106 10 45 -2 95 -25 101 -27 7 -25 33 4 52 17 11 25 29 30 61 13
97 77 134 159 92z m-2745 -1 c23 -1 32 -7 32 -19 0 -10 9 -22 20 -28 11 -6 20
-21 20 -35 0 -13 6 -25 13 -28 9 -3 9 -7 0 -18 -7 -8 -15 -34 -19 -57 -4 -24
-12 -42 -20 -42 -7 0 -16 -9 -19 -20 -4 -13 -15 -20 -33 -20 -59 0 -69 -9 -75
-61 -8 -63 -12 -69 -46 -69 -23 0 -30 5 -34 28 -4 22 -3 325 2 355 2 14 42 23
85 19 22 -2 56 -5 74 -5z m2920 1 c7 -7 12 -29 12 -50 0 -31 -4 -38 -20 -38
-11 0 -23 0 -27 -1 -5 0 -12 19 -16 42 -7 31 -5 44 5 50 18 12 32 11 46 -3z
m-788 -13 c0 -8 -4 -15 -10 -15 -5 0 -10 7 -10 15 0 8 5 15 10 15 6 0 10 -7
10 -15z m268 -25 c-1 -51 -21 -48 -25 3 -1 26 2 37 12 37 9 0 14 -12 13 -40z
m1043 30 c5 0 9 -16 7 -36 -4 -66 -69 -80 -81 -17 -3 15 -3 32 0 39 5 15 32
23 51 18 8 -2 18 -4 23 -4z m-3763 -37 c3 -26 8 -33 35 -39 28 -6 57 -25 57
-37 0 -3 -20 -11 -45 -18 -43 -13 -45 -15 -46 -51 -4 -102 -2 -131 10 -123 5
3 13 -4 16 -15 5 -15 10 -18 19 -11 9 7 16 7 24 -1 7 -7 12 -8 12 -2 0 5 4 2
9 -5 6 -9 6 -22 0 -33 -8 -14 -22 -18 -68 -18 -52 0 -61 3 -76 26 -9 14 -14
32 -11 39 2 7 2 16 -2 20 -4 4 -7 32 -8 63 -2 94 -3 102 -18 102 -7 0 -19 6
-25 14 -9 10 -1 26 35 70 53 63 77 69 82 19z m4207 -34 c6 -36 10 -40 51 -50
24 -6 49 -18 56 -26 16 -19 19 -174 4 -233 -9 -38 -15 -45 -36 -45 -25 0 -25
1 -28 100 -4 115 -9 129 -35 110 -14 -10 -19 -31 -22 -94 -5 -86 -16 -121 -41
-121 -26 0 -35 52 -33 200 2 188 5 208 33 212 31 5 44 -8 51 -53z m-1791 4
c-1 -15 -3 -40 -3 -55 -1 -20 -5 -26 -16 -22 -12 5 -15 -6 -15 -65 0 -42 -4
-71 -10 -71 -7 0 -10 30 -8 83 3 72 5 82 21 79 20 -3 22 9 5 26 -9 9 -9 12 1
12 8 0 11 6 7 16 -3 9 -3 20 0 25 10 17 20 1 18 -28z m2400 24 c17 -12 18 -28
14 -173 -3 -112 -8 -168 -19 -189 -13 -28 -18 -30 -78 -32 -56 -1 -66 1 -87
24 -13 14 -31 45 -40 69 -14 37 -19 42 -35 34 -10 -6 -34 -10 -53 -10 -29 0
-36 -4 -36 -20 0 -11 6 -21 13 -21 6 -1 17 -2 22 -4 6 -1 16 -3 23 -3 8 -1 12
-12 10 -29 -3 -27 -6 -28 -65 -31 -47 -2 -63 0 -63 10 0 7 -8 18 -19 25 -10 6
-24 32 -32 57 -7 25 -17 46 -21 46 -4 0 -8 5 -8 10 0 6 6 9 13 8 6 -2 11 3 9
10 -4 20 23 74 51 105 20 21 35 27 68 27 35 0 47 -6 75 -37 19 -20 34 -31 34
-24 0 8 6 11 15 7 9 -3 19 3 25 14 6 11 28 25 49 31 32 9 40 17 45 42 12 58
52 82 90 54z m-5371 -31 c10 4 17 1 17 -6 0 -9 3 -10 14 -1 11 9 15 8 20 -6 6
-15 8 -15 16 -3 7 11 10 8 10 -12 0 -16 -6 -28 -12 -29 -22 -1 -73 -9 -84 -13
-6 -2 -9 -17 -7 -33 4 -26 8 -29 39 -27 19 2 34 -1 34 -6 0 -6 7 -10 15 -10
19 0 29 -40 21 -83 -9 -47 -59 -83 -126 -91 -52 -6 -93 5 -78 20 4 4 3 15 -3
25 -8 16 -4 22 23 39 28 17 34 18 36 5 4 -19 12 -19 40 1 33 23 27 32 -20 36
-30 2 -43 8 -43 18 0 8 -9 20 -20 26 -11 6 -19 17 -17 24 2 7 -2 16 -9 20 -7
5 -8 13 -3 21 5 8 9 20 10 27 6 36 89 83 105 60 3 -5 13 -6 22 -2z m1772 -26
c0 -24 -5 -35 -15 -35 -12 0 -15 -14 -15 -62 0 -54 -4 -67 -26 -89 -16 -16
-38 -26 -57 -26 -49 -2 -38 -16 19 -25 36 -5 55 -14 63 -28 6 -11 15 -23 19
-26 13 -10 4 -84 -10 -82 -7 2 -15 -8 -19 -22 -6 -24 -9 -25 -83 -25 -74 0
-78 1 -99 30 -32 43 -29 60 12 60 24 0 35 -5 38 -18 4 -14 13 -18 37 -16 38 2
61 20 61 45 0 21 3 20 -64 25 -74 4 -76 6 -76 73 0 36 -5 61 -12 63 -18 6 -14
90 7 123 29 46 45 55 99 55 28 0 58 5 66 10 8 6 24 9 35 8 16 -2 20 -11 20
-38z m-1433 7 c4 -10 12 -16 17 -13 5 3 11 -4 15 -17 9 -36 7 -125 -4 -132 -6
-3 -38 -9 -72 -13 -39 -5 -63 -12 -66 -21 -3 -10 0 -12 11 -8 10 4 17 -2 21
-19 4 -16 11 -22 18 -18 7 4 25 9 40 11 21 2 26 -1 22 -12 -5 -11 -2 -13 10
-9 24 9 19 -12 -6 -30 -30 -21 -153 -23 -145 -2 3 8 -5 18 -19 25 -14 6 -22
16 -18 22 3 6 0 15 -7 20 -10 6 -14 29 -14 76 0 76 18 113 69 144 39 24 118
21 128 -4z m871 -1 c9 -7 12 -28 9 -63 -4 -56 -18 -67 -40 -33 -17 28 -50 25
-62 -6 -6 -14 -10 -50 -10 -79 0 -44 4 -57 21 -69 13 -9 19 -21 16 -30 -5 -12
-22 -16 -77 -16 -67 0 -70 1 -70 24 0 13 6 29 14 35 9 8 14 38 15 97 2 70 -1
88 -15 98 -11 8 -14 20 -10 33 6 20 14 21 102 21 53 -1 100 -6 107 -12z m237
-16 c11 -13 20 -33 20 -45 0 -13 6 -25 14 -28 10 -4 13 -19 9 -59 -2 -29 -8
-54 -14 -56 -5 -2 -9 -10 -9 -17 0 -7 -12 -27 -27 -44 -24 -27 -34 -31 -78
-31 -27 0 -57 5 -65 10 -8 5 -12 10 -8 10 4 0 -4 16 -17 36 -29 43 -34 132
-10 174 8 14 17 32 21 40 16 31 39 41 91 37 40 -3 58 -9 73 -27z m1820 14 c0
-8 -5 -12 -10 -9 -6 4 -8 11 -5 16 9 14 15 11 15 -7z m-1247 -1 c18 -3 27 -11
27 -24 0 -10 -6 -19 -12 -19 -8 0 -14 -15 -16 -37 -1 -20 -4 -38 -6 -41 -9 -8
-26 10 -26 27 0 10 -8 26 -19 35 -18 16 -19 15 -25 -24 -4 -23 -11 -38 -16
-35 -6 4 -10 -18 -10 -57 0 -60 2 -65 30 -82 17 -9 28 -22 24 -27 -3 -5 -9 -7
-14 -4 -5 3 -11 1 -14 -3 -7 -12 -117 -5 -130 8 -8 8 -6 15 9 26 17 13 21 29
23 110 3 82 2 97 -14 108 -10 8 -15 20 -11 29 5 14 21 17 89 16 46 0 95 -3
111 -6z m215 1 c12 -4 22 -13 22 -20 0 -8 7 -17 15 -20 11 -5 15 -22 15 -68
l0 -63 -65 0 c-36 0 -68 -3 -71 -5 -3 -3 -2 -18 2 -32 3 -15 9 -25 12 -22 3 3
11 1 18 -4 15 -13 36 -9 51 10 10 13 12 13 18 -2 4 -9 5 -29 3 -45 -3 -26 -6
-28 -45 -27 -78 3 -84 4 -90 22 -4 9 -12 22 -19 27 -20 16 -31 95 -20 148 12
66 50 107 96 107 19 0 45 -3 58 -6z m292 -10 c12 -12 1 -86 -11 -78 -5 3 -9
13 -9 22 0 13 -10 17 -40 18 -37 2 -40 0 -40 -26 0 -25 12 -36 52 -44 3 0 9
-4 13 -8 4 -4 13 -4 21 -1 8 3 16 -5 20 -21 3 -14 10 -26 15 -26 5 0 9 -18 9
-40 0 -29 -4 -40 -15 -40 -8 0 -15 -9 -15 -19 0 -11 -4 -23 -10 -26 -5 -3 -10
-1 -10 6 0 8 -4 8 -12 1 -7 -5 -31 -8 -53 -7 -22 2 -47 4 -56 4 -11 1 -19 13
-22 34 -6 38 6 55 26 39 8 -7 17 -9 20 -5 4 3 9 -2 13 -11 5 -13 9 -14 20 -5
8 6 14 8 14 3 1 -21 20 23 20 45 0 16 -4 21 -15 18 -8 -4 -17 -2 -21 4 -3 6
-13 8 -21 5 -9 -4 -17 1 -20 14 -3 11 -11 20 -18 20 -18 0 -27 70 -12 102 6
15 18 30 27 32 24 8 120 0 130 -10z m258 1 c24 -8 25 -9 16 -54 -7 -34 -24
-33 -25 2 0 12 -3 16 -6 9 -2 -6 -10 -9 -16 -5 -6 4 -21 8 -34 9 -19 2 -23 -2
-23 -24 0 -30 19 -70 20 -42 1 13 2 13 13 0 7 -8 23 -16 37 -18 39 -4 48 -36
34 -124 -7 -39 -23 -52 -25 -20 0 14 -2 14 -8 -3 -7 -17 -18 -20 -70 -21 -59
0 -66 3 -62 34 1 6 -3 12 -9 12 -16 0 -12 27 6 34 27 10 34 7 34 -16 0 -19 2
-20 10 -8 8 12 12 13 19 1 14 -21 49 15 43 45 -2 13 -8 21 -12 19 -5 -3 -11
-1 -15 5 -4 6 -11 8 -16 4 -14 -8 -65 46 -73 77 -8 35 17 82 46 90 27 6 84 3
116 -6z m996 -5 c25 -9 26 -12 26 -104 0 -100 13 -148 36 -139 8 3 14 1 14 -3
0 -5 3 -19 6 -32 7 -23 6 -23 -89 -21 -119 2 -133 19 -57 72 14 10 19 27 21
72 3 88 2 92 -31 104 -31 10 -35 18 -22 37 15 23 57 29 96 14z m327 -33 c16
-26 19 -48 18 -117 -2 -120 -8 -148 -31 -155 -37 -12 -48 11 -49 109 -1 50 -4
102 -8 116 l-7 25 -18 -28 c-18 -27 -22 -48 -25 -154 -1 -42 -5 -54 -22 -64
-17 -9 -25 -8 -36 4 -12 12 -15 42 -14 148 1 90 5 135 13 140 7 4 45 8 85 8
72 0 74 0 94 -32z m192 24 c24 -9 25 -14 29 -115 3 -97 5 -107 29 -133 41 -44
29 -53 -71 -53 -49 0 -91 4 -94 8 -8 14 5 52 19 52 24 0 47 62 43 120 -3 48
-6 56 -30 68 -29 14 -32 20 -20 38 15 23 57 29 95 15z m301 -14 c13 -10 16
-22 13 -46 -7 -42 -16 -51 -28 -28 -6 9 -19 17 -30 17 -32 0 -19 -32 22 -54
60 -32 70 -95 27 -156 -15 -21 -25 -24 -78 -23 -69 1 -80 7 -83 49 -2 29 -2
29 51 26 46 -2 52 0 52 17 0 13 -9 21 -28 26 -31 6 -67 48 -77 87 -6 25 14 75
37 89 20 13 102 10 122 -4z m-1634 -208 c0 -27 -4 -49 -10 -49 -10 0 -14 35
-10 74 1 13 -3 17 -14 13 -9 -4 -16 -2 -16 3 0 9 31 19 43 13 4 -2 7 -26 7
-54z m-693 -41 c-3 -8 -6 -5 -6 6 -1 11 2 17 5 13 3 -3 4 -12 1 -19z m723 -23
c0 -19 -4 -35 -9 -35 -5 0 -9 16 -9 35 0 19 4 35 9 35 5 0 9 -16 9 -35z
m-4149 -502 c-9 -16 -10 -14 -11 10 0 15 -6 27 -12 27 -9 0 -10 3 -2 8 6 4 15
21 20 37 8 29 9 28 12 -17 2 -26 -2 -56 -7 -65z m340 -14 c2 -148 0 -179 -15
-179 -7 0 -16 -13 -19 -30 -4 -18 -13 -30 -22 -30 -9 0 -14 -4 -11 -9 3 -5 -1
-14 -9 -21 -23 -19 -19 6 6 41 11 16 22 35 23 42 2 7 6 20 11 30 4 10 5 21 1
24 -3 3 -2 11 3 17 12 15 17 58 8 73 -4 6 -2 15 4 19 8 5 8 9 -1 14 -9 6 -9
13 -1 28 6 11 11 31 11 43 0 12 2 20 5 18 2 -3 5 -39 6 -80z m229 22 c0 -20
-17 -37 -27 -28 -7 8 7 47 18 47 5 0 9 -9 9 -19z m-565 -191 l-13 -95 -1 65
c-1 40 -5 60 -10 52 -14 -22 -23 16 -10 41 39 75 50 54 34 -63z m560 -39 c-8
-76 -14 -90 -28 -66 -7 12 -5 20 4 26 12 8 12 11 -1 19 -20 12 -21 60 -2 82
25 30 35 10 27 -61z m-595 -96 c0 -8 -4 -15 -10 -15 -5 0 -7 7 -4 15 4 8 8 15
10 15 2 0 4 -7 4 -15z m-1143 -412 c-3 -10 -5 -4 -5 12 0 17 2 24 5 18 2 -7 2
-21 0 -30z m264 -106 c-8 -8 -11 -7 -11 4 0 20 13 34 18 19 3 -7 -1 -17 -7
-23z m-265 -122 c-6 -25 -12 -33 -14 -22 -3 14 -7 16 -18 6 -25 -20 -17 40 9
67 19 20 23 21 28 6 3 -9 1 -34 -5 -57z m273 -63 c0 -60 -17 -123 -18 -71 -1
14 -6 30 -12 36 -12 12 8 106 22 97 5 -3 9 -31 8 -62z m-269 -41 c0 -6 -4 -12
-8 -15 -5 -3 -9 1 -9 9 0 8 4 15 9 15 4 0 8 -4 8 -9z m2020 -1106 c0 -16 -6
-25 -15 -25 -9 0 -15 -9 -15 -22 0 -23 -19 -62 -21 -43 0 6 -4 1 -9 -10 -5
-11 -9 -79 -9 -152 -1 -114 1 -132 14 -127 12 5 15 -4 15 -50 0 -31 -4 -56
-10 -56 -5 0 -10 7 -10 15 0 8 -5 15 -11 15 -6 0 -8 7 -5 16 4 10 0 18 -11 20
-29 8 -57 112 -50 192 7 98 74 232 116 232 6 0 11 5 11 10 0 6 2 10 5 10 3 0
5 -11 5 -25z m-1484 -280 c-9 -19 -10 -19 -16 5 -10 38 -24 -70 -14 -112 l7
-33 12 40 13 40 1 -62 c1 -34 -3 -65 -9 -68 -5 -3 -10 3 -10 14 0 12 -7 21
-15 21 -11 0 -15 12 -16 48 -1 84 -12 127 -33 124 -17 -3 -18 1 -11 45 8 55
13 66 26 58 5 -4 12 1 15 9 8 21 24 10 24 -15 0 -33 20 -21 22 14 1 17 4 1 7
-38 4 -38 2 -79 -3 -90z m919 115 l14 25 1 -27 c0 -33 20 -48 21 -16 1 23 1
23 9 -2 15 -47 11 -234 -5 -256 -14 -18 -14 -18 -15 6 0 18 -3 21 -9 12 -13
-21 -21 21 -21 115 0 72 -2 82 -20 88 -13 4 -27 -1 -42 -15 -20 -18 -23 -33
-26 -113 -4 -97 -9 -111 -34 -102 -22 9 -29 43 -32 145 -2 87 8 130 30 130 7
0 14 5 16 12 7 20 28 -2 29 -30 1 -22 3 -23 6 -6 3 16 9 20 24 17 15 -4 19 0
20 18 l0 24 10 -25 10 -25 14 25z m-327 -35 c6 11 12 14 12 8 0 -19 20 -16 20
3 0 8 5 12 10 9 19 -12 11 -45 -10 -45 -11 0 -20 -7 -20 -15 0 -7 -7 -18 -15
-22 -18 -10 -23 -38 -24 -126 -1 -72 2 -67 -61 -90 -10 -4 -6 79 6 118 16 51
11 105 -9 117 -15 8 -15 12 0 44 10 20 22 33 30 30 7 -3 16 0 19 6 5 7 12 -2
19 -22 11 -32 12 -33 23 -15z m-363 -244 l-6 -24 -21 23 c-18 19 -21 35 -22
114 0 80 3 96 24 131 l25 40 3 -130 c1 -71 0 -141 -3 -154z m154 147 c0 -73
-4 -142 -9 -153 -8 -19 -8 -19 -17 4 l-10 25 -7 -25 -8 -24 -7 25 c-4 14 -4
45 0 70 4 25 8 66 8 92 1 45 27 117 44 118 4 0 7 -60 6 -132z m291 95 c0 -27
-3 -34 -11 -26 -7 7 -9 23 -5 37 9 37 16 32 16 -11z m-1299 -33 c5 0 9 5 9 10
0 6 5 10 10 10 11 0 14 -209 4 -248 -5 -18 -9 -20 -20 -11 -11 9 -14 7 -14 -9
0 -12 -4 -23 -9 -27 -5 -3 -12 25 -16 62 -3 38 -8 91 -11 120 -3 29 0 60 5 70
5 10 13 27 17 38 6 18 8 18 11 3 3 -10 9 -18 14 -18z m139 -7 c0 -24 -3 -33
-9 -25 -7 12 -4 62 5 62 2 0 4 -17 4 -37z m178 4 c14 5 15 2 6 -21 -3 -9 -10
-14 -14 -11 -14 9 -24 -85 -11 -98 8 -8 11 -7 11 6 0 9 5 17 10 17 11 0 13
-30 4 -54 -3 -9 -10 -13 -15 -11 -5 3 -11 -6 -15 -20 -6 -24 -24 -36 -24 -15
0 6 -11 10 -24 10 -25 0 -33 18 -38 85 -2 41 32 117 50 110 8 -3 16 3 19 16 6
21 6 21 17 2 6 -11 17 -18 24 -16z m81 -123 c-12 -11 -13 0 -10 74 l4 87 10
-74 c7 -58 6 -76 -4 -87z m38 54 c-2 -13 -4 -3 -4 22 0 25 2 35 4 23 2 -13 2
-33 0 -45z m-373 27 c-4 -8 -8 -15 -10 -15 -2 0 -4 7 -4 15 0 8 4 15 10 15 5
0 7 -7 4 -15z m302 -83 c-11 -10 -14 3 -7 38 l6 35 3 -33 c2 -19 1 -36 -2 -40z
m553 -106 c-9 -8 -10 -7 -5 7 3 10 7 24 7 30 1 7 3 4 6 -7 3 -10 -1 -23 -8
-30z m1191 12 c0 -7 -4 -19 -9 -27 -11 -17 -23 1 -15 23 7 19 24 21 24 4z
m8959 -49 c19 -7 36 -22 42 -36 10 -27 24 -23 71 21 31 30 38 32 38 12 0 -11
8 -12 35 -6 37 8 72 4 92 -12 8 -7 18 -5 28 6 35 34 127 32 153 -5 17 -25 26
-24 58 6 21 19 38 25 73 25 26 0 55 -6 66 -14 11 -7 38 -23 59 -35 41 -24 56
-19 59 18 2 29 23 26 58 -8 22 -22 29 -39 29 -68 0 -21 3 -47 6 -58 3 -14 -6
-36 -29 -66 -20 -25 -37 -56 -39 -70 -3 -23 -8 -24 -95 -33 -51 -4 -93 -12
-93 -17 0 -5 -11 -9 -25 -9 -14 0 -25 4 -25 8 0 10 -12 11 -120 10 -47 0 -96
0 -110 0 -95 3 -124 2 -133 -7 -23 -23 -64 -11 -106 30 -23 23 -43 40 -45 38
-17 -18 -46 -85 -46 -104 0 -21 -5 -25 -30 -25 -16 0 -33 -6 -37 -13 -12 -20
-78 -47 -115 -47 -18 0 -54 7 -80 14 -25 8 -49 12 -52 9 -3 -4 -6 0 -6 7 0 9
-5 7 -14 -6 -12 -15 -17 -17 -27 -6 -11 10 -10 12 4 12 9 0 17 5 17 10 0 6 -9
10 -20 10 -13 0 -20 7 -20 20 0 19 -6 20 -77 18 l-76 -2 -37 43 c-21 24 -43
41 -49 37 -6 -4 -21 -29 -33 -57 -25 -54 -31 -57 -118 -63 -30 -2 -59 -5 -65
-5 -5 -1 -1 -8 9 -16 18 -14 15 -15 -38 -15 -33 0 -70 -7 -88 -16 -24 -12 -36
-13 -54 -5 -24 11 -24 12 -24 178 0 93 3 177 6 188 3 11 20 30 39 42 33 22 38
22 110 11 57 -9 87 -9 126 0 77 18 116 16 129 -8 10 -19 40 -28 40 -12 0 4 15
17 34 30 23 16 42 21 62 18 38 -7 87 -27 95 -39 4 -6 21 1 40 14 22 15 49 24
73 25 22 0 42 6 44 12 5 17 20 15 39 -4 13 -13 28 -15 67 -9 28 3 60 12 71 20
11 8 20 14 21 14 1 1 16 -4 33 -10z m-2987 -72 c35 -16 49 -29 53 -49 10 -42
27 -51 64 -32 31 15 33 15 65 -10 28 -21 35 -23 40 -11 7 20 55 42 64 29 7 -9
48 -34 57 -34 3 0 5 7 5 16 0 8 5 12 10 9 6 -3 14 5 19 19 19 48 43 66 87 66
36 0 47 -6 78 -40 41 -46 48 -92 20 -140 -11 -17 -14 -35 -10 -46 10 -26 16
-126 8 -139 -4 -5 -7 -17 -7 -25 0 -16 -45 -28 -45 -11 0 5 -13 12 -29 16 -16
3 -42 19 -57 35 -33 34 -64 39 -64 12 0 -26 -49 -68 -89 -76 -25 -4 -48 1 -88
20 -47 22 -59 24 -83 14 -16 -7 -31 -18 -34 -26 -4 -10 -22 -14 -60 -14 -66 0
-116 34 -116 78 0 37 -11 50 -35 44 -11 -3 -60 -6 -110 -7 -75 -2 -91 -5 -93
-19 -2 -9 -7 -16 -12 -16 -4 0 -10 -10 -14 -23 -8 -32 -54 -63 -107 -71 -38
-6 -50 -3 -72 14 -15 12 -27 27 -27 35 0 19 -30 8 -69 -26 -29 -25 -42 -29
-92 -29 -51 0 -61 3 -74 24 -20 29 -11 72 16 79 25 7 24 29 -1 52 -11 10 -20
24 -20 32 0 9 -6 7 -20 -7 -11 -11 -20 -26 -20 -33 0 -7 -6 -19 -12 -26 -7 -6
-13 -33 -13 -59 0 -39 -4 -48 -25 -59 -39 -21 -106 -10 -141 23 -16 15 -29 38
-29 51 0 13 -4 23 -10 23 -5 0 -10 17 -10 38 0 45 -8 56 -27 41 -10 -9 -17 -8
-29 2 -14 11 -18 10 -31 -6 -16 -22 -9 -105 9 -116 5 -3 8 -19 6 -35 -3 -26
-8 -30 -43 -34 -22 -3 -56 -3 -75 0 -34 5 -35 7 -33 45 2 21 7 43 13 49 12 12
13 146 1 146 -5 0 -11 12 -14 26 -3 20 0 28 13 31 10 3 21 14 24 26 4 17 8 19
18 9 15 -15 105 -16 110 0 6 16 68 -31 68 -51 1 -14 3 -13 14 2 7 9 18 17 24
17 5 0 12 7 16 15 3 8 9 14 13 13 4 0 20 4 36 10 20 9 34 9 55 0 40 -17 72
-49 73 -72 1 -17 2 -18 6 -3 5 20 19 22 26 5 3 -7 6 -1 6 14 1 29 55 70 100
74 40 5 91 -32 91 -66 0 -16 -4 -31 -9 -34 -10 -7 10 -71 27 -88 7 -7 12 -18
12 -25 0 -7 5 -13 11 -13 5 0 8 -4 5 -9 -4 -5 3 -7 13 -4 29 7 34 33 11 55
-11 10 -20 27 -20 38 0 10 -4 22 -10 25 -5 3 -10 24 -10 45 0 31 3 38 15 34 9
-4 15 0 15 9 0 14 21 25 70 34 13 2 28 9 32 16 5 8 14 5 30 -8 47 -40 58 -59
52 -91 -3 -18 -1 -35 5 -38 6 -4 11 -17 11 -29 0 -16 3 -19 9 -8 5 7 13 11 19
7 6 -3 13 -2 17 4 4 6 11 8 16 4 6 -3 13 3 16 15 3 11 9 18 14 15 5 -3 9 -1 9
5 0 6 11 13 24 17 17 4 32 -3 60 -29 20 -19 36 -41 36 -48 1 -8 9 2 20 21 14
26 19 56 20 116 0 119 6 141 39 142 14 0 47 -10 73 -21z m749 3 c-2 -3 13 -22
33 -42 21 -21 35 -42 31 -48 -3 -5 -1 -10 4 -10 6 0 11 6 11 14 0 37 133 59
186 31 27 -14 30 -14 44 2 18 20 22 21 88 28 90 9 95 8 138 -40 32 -34 43 -54
46 -86 2 -23 -1 -47 -7 -53 -6 -6 -17 -32 -24 -59 -9 -29 -25 -57 -43 -72 -36
-30 -42 -31 -67 -6 -23 23 -37 22 -71 -2 -30 -21 -44 -21 -60 -2 -16 19 -40
20 -40 1 0 -18 -13 -22 -78 -25 -57 -3 -122 27 -122 56 0 13 -3 13 -15 3 -8
-7 -15 -21 -15 -31 0 -10 -5 -21 -11 -24 -6 -4 -8 -14 -5 -22 5 -11 2 -13 -11
-8 -10 4 -26 8 -35 10 -86 18 -110 82 -108 290 1 73 8 104 21 84 6 -11 9 -10
15 4 5 14 16 17 53 15 25 -2 44 -5 42 -8z m-3198 -117 c5 -28 0 -33 -30 -33
-14 0 -23 6 -23 15 0 8 -6 15 -14 15 -21 0 -29 17 -22 45 l6 23 39 -21 c24
-13 41 -31 44 -44z m-233 22 c10 -12 8 -16 -14 -25 -14 -5 -26 -16 -26 -24 0
-8 -6 -17 -12 -19 -10 -4 -9 -8 2 -16 13 -10 13 -12 0 -21 -10 -6 -11 -13 -5
-17 16 -12 15 -61 -1 -67 -19 -7 -18 -43 2 -54 10 -6 14 -14 9 -22 -4 -7 -9
-44 -10 -82 -2 -63 0 -70 22 -88 37 -29 24 -50 -32 -50 -38 0 -45 3 -45 19 0
11 -4 23 -10 26 -10 6 -8 50 5 115 5 31 2 39 -24 65 -32 31 -41 65 -18 65 8 0
22 9 31 19 15 16 17 30 11 71 -5 38 -3 59 9 85 15 31 21 35 55 35 22 0 44 -6
51 -15z m1320 -30 c8 -9 10 -27 6 -47 -4 -18 -9 -49 -12 -68 -3 -19 -12 -58
-21 -87 -17 -51 -17 -52 6 -70 19 -15 23 -29 24 -71 1 -46 -3 -57 -29 -82 -26
-26 -37 -30 -89 -32 -33 -1 -69 2 -80 5 -24 8 -62 66 -49 76 22 15 30 59 24
129 -7 68 -20 111 -20 64 0 -12 -4 -22 -9 -22 -5 0 -11 -17 -14 -37 -9 -57
-56 -103 -104 -103 -49 0 -83 10 -83 23 0 5 -7 15 -15 21 -22 16 -30 110 -16
175 10 49 33 86 53 86 5 0 12 5 16 10 10 15 62 17 94 4 24 -10 58 -61 58 -86
0 -5 7 -10 15 -10 9 0 17 14 21 34 4 21 16 40 33 51 14 9 28 20 31 24 3 4 25
9 49 12 24 3 46 8 49 11 11 11 50 5 62 -10z m3040 -56 c0 -4 -5 -11 -11 -15
-17 -10 -32 12 -24 37 7 22 8 22 21 4 8 -10 14 -22 14 -26z m-6762 12 c3 -9 7
-9 18 0 12 10 14 4 14 -35 0 -26 -4 -45 -9 -42 -12 8 -21 -18 -21 -59 0 -19
-7 -40 -15 -49 -8 -8 -19 -42 -23 -75 -10 -68 -4 -131 9 -110 5 9 11 5 20 -14
16 -36 0 -53 -58 -62 -80 -11 -104 51 -64 165 10 30 27 84 37 119 l17 63 -23
18 c-21 16 -22 22 -14 51 7 23 17 35 34 40 35 9 73 4 78 -10z m3200 0 c26 -23
31 -93 8 -117 -21 -20 -47 -17 -53 6 -13 48 -43 -1 -43 -69 0 -25 7 -44 20
-56 12 -11 20 -28 18 -39 -3 -18 -14 -23 -66 -30 -51 -7 -66 -6 -78 6 -13 12
-13 19 1 51 21 50 20 161 -2 198 -16 28 -16 29 2 44 23 17 44 19 79 6 18 -7
28 -6 36 5 17 19 50 17 78 -5z m-2012 -50 c-2 -25 -5 -52 -5 -58 -1 -7 -7 -13
-15 -13 -9 0 -15 -19 -19 -61 -3 -34 -11 -65 -17 -69 -6 -4 -14 -34 -17 -68
l-6 -60 -43 -7 c-24 -3 -49 -3 -54 0 -7 4 -9 36 -6 84 5 79 0 121 -14 121 -4
0 -10 -27 -14 -60 -4 -34 -13 -63 -21 -67 -7 -5 -15 -24 -17 -43 -3 -31 -6
-35 -35 -38 -30 -3 -33 -1 -33 25 0 16 7 38 15 49 8 10 15 31 15 47 0 15 9 46
19 70 11 23 22 61 25 85 4 24 10 51 15 60 5 9 12 25 15 35 6 18 40 22 84 11
22 -6 23 -10 19 -70 -5 -68 -2 -80 18 -60 12 12 31 90 27 112 -3 13 38 33 56
26 8 -3 11 -19 8 -51z m1747 11 c36 -62 19 -232 -27 -264 -6 -4 -30 -8 -53 -8
-43 0 -43 0 -44 -37 -2 -68 -12 -88 -44 -88 -40 0 -43 17 -38 229 3 142 7 182
19 190 8 6 49 11 91 11 76 0 77 0 96 -33z m-4163 -80 c-12 -26 -13 -26 -22 -7
-6 14 -5 31 3 50 11 30 11 30 22 7 7 -16 7 -30 -3 -50z m27 31 c-3 -10 -5 -4
-5 12 0 17 2 24 5 18 2 -7 2 -21 0 -30z m3143 2 c4 -20 8 -26 13 -17 10 15
193 17 202 1 12 -19 -6 -24 -101 -27 -85 -4 -94 -6 -89 -22 4 -12 -1 -19 -14
-23 -14 -3 -18 -11 -14 -26 6 -23 11 -21 -91 -25 -53 -2 -62 -11 -52 -51 7
-27 46 -36 46 -11 0 15 47 28 55 16 11 -19 -8 -68 -29 -74 -35 -10 -136 -7
-136 4 0 21 -2 25 -15 33 -9 4 -12 18 -10 35 8 53 28 117 39 127 6 6 11 17 11
25 0 8 10 16 23 18 13 2 22 10 22 21 0 28 10 32 75 29 58 -3 60 -4 65 -33z
m-3350 -184 c0 -158 -3 -201 -15 -217 -8 -10 -15 -14 -15 -7 0 14 -39 14 -57
0 -9 -6 -13 -6 -13 1 0 11 -45 10 -57 -1 -10 -11 -23 -8 -23 4 0 6 -11 20 -24
30 -29 23 -38 81 -24 154 11 53 53 109 75 100 8 -2 17 3 20 12 6 14 8 14 20
-3 12 -17 13 -16 13 8 0 14 7 28 15 32 8 3 20 17 25 31 5 14 14 25 19 25 5 0
13 9 16 20 17 53 25 -8 25 -189z m3110 179 c0 -17 5 -30 13 -30 9 0 9 -2 0 -8
-6 -4 -14 -28 -18 -54 -4 -28 -13 -48 -20 -48 -8 0 -13 -19 -14 -56 -2 -69 -3
-70 -38 -69 -35 0 -41 33 -17 90 9 22 18 50 20 62 1 13 5 31 9 42 4 15 1 18
-18 14 -14 -3 -24 -10 -24 -16 2 -70 -4 -107 -18 -107 -11 0 -15 -12 -15 -45
0 -45 0 -45 -35 -45 -38 0 -43 10 -22 50 18 34 52 188 44 197 -11 10 -16 -1
-21 -38 -2 -21 -9 -35 -20 -37 -15 -3 -23 -55 -17 -114 2 -12 -5 -18 -17 -18
-15 0 -19 -5 -15 -19 6 -25 -8 -32 -46 -21 -17 5 -31 5 -31 1 0 -4 -21 -8 -47
-9 -27 -1 -71 -5 -99 -8 -39 -4 -53 -2 -63 10 -8 9 -10 16 -6 16 4 0 2 7 -5
15 -10 12 -9 21 4 47 33 67 64 88 130 88 25 0 35 5 39 20 9 34 -3 58 -29 58
-17 0 -24 -6 -24 -19 0 -11 -4 -19 -10 -19 -5 0 -10 8 -10 18 0 10 -5 23 -12
30 -28 28 46 50 128 37 l44 -6 0 -55 c0 -41 -4 -54 -15 -54 -9 0 -15 -9 -16
-22 0 -13 -3 -47 -5 -76 -5 -50 -4 -53 14 -43 13 7 21 25 25 62 4 28 10 56 16
63 5 6 14 37 21 68 6 32 17 61 25 65 7 5 59 9 114 11 l101 2 0 -30z m-832 -41
c-3 -47 -17 -58 -41 -34 -25 24 -56 19 -63 -11 -8 -31 5 -45 40 -47 37 -3 42
-24 26 -124 0 -2 -7 -3 -15 -3 -8 0 -15 -7 -15 -15 0 -21 -37 -34 -112 -37
l-63 -3 -3 33 c-4 42 13 65 42 56 12 -4 24 -11 28 -17 11 -18 37 -16 43 4 4
10 11 19 16 19 5 0 9 7 9 15 0 9 -9 15 -23 15 -12 0 -35 14 -51 30 -24 26 -27
36 -22 66 4 19 13 37 21 40 7 3 15 14 18 24 5 20 22 24 110 28 l58 3 -3 -42z
m-571 18 c30 10 28 -154 -2 -187 -9 -10 -15 -36 -15 -62 0 -52 -16 -72 -52
-63 -13 3 -45 1 -72 -5 -27 -6 -56 -8 -66 -5 -29 9 -39 53 -24 105 15 49 48
79 92 85 15 2 28 4 30 4 1 1 5 1 10 2 26 3 42 21 33 37 -7 14 -19 17 -44 14
-28 -3 -36 0 -41 16 -4 10 -4 26 -1 34 7 19 81 36 115 28 14 -4 30 -5 37 -3z
m298 3 c10 -16 -6 -80 -20 -80 -7 0 -18 7 -25 15 -21 25 -54 15 -58 -17 -3
-23 1 -28 30 -36 23 -6 34 -15 36 -30 2 -12 10 -22 18 -22 19 0 18 -26 -1 -34
-8 -3 -15 -13 -15 -23 0 -10 -14 -31 -31 -48 -27 -26 -38 -30 -103 -33 -71 -4
-73 -3 -80 21 -9 38 7 72 35 72 13 0 27 -4 31 -9 14 -20 46 -15 61 8 18 26 13
36 -16 36 -25 0 -67 45 -67 71 0 29 26 74 56 98 20 16 41 21 85 21 32 0 61 -4
64 -10z m-850 -22 c4 -4 13 -4 21 -1 18 7 28 -36 15 -70 -10 -26 -31 -38 -31
-17 0 17 -51 11 -81 -11 -16 -11 -29 -29 -29 -39 0 -10 -7 -25 -15 -34 -8 -8
-15 -27 -15 -43 0 -20 3 -24 9 -14 7 11 11 10 19 -4 7 -14 17 -17 41 -12 30 6
31 5 31 -27 0 -45 -14 -54 -85 -57 -50 -2 -60 0 -63 14 -2 9 -9 17 -17 17 -17
0 -25 23 -24 73 2 113 97 235 181 233 20 -1 39 -4 43 -8z m-985 -28 c0 -5 -2
-10 -4 -10 -3 0 -8 5 -11 10 -3 6 -1 10 4 10 6 0 11 -4 11 -10z m-25 -19 c3
-10 11 -18 18 -18 44 1 44 2 50 -135 7 -149 6 -149 -60 -165 -33 -8 -44 -7
-56 4 -15 15 -11 67 4 57 5 -3 9 -1 9 4 0 5 9 20 20 32 17 20 20 35 18 85 -3
54 -5 60 -26 63 -17 3 -22 8 -17 20 3 9 9 29 12 45 6 31 19 35 28 8z m255 1
c0 -10 6 -26 14 -37 7 -11 17 -40 21 -64 6 -39 30 -81 39 -70 1 2 9 31 16 64
19 85 37 120 56 104 11 -9 14 -8 14 5 0 10 5 14 10 11 15 -9 12 -41 -4 -54 -8
-7 -17 -34 -21 -62 -4 -27 -13 -55 -20 -62 -6 -7 -15 -34 -19 -60 -4 -29 -12
-47 -20 -47 -8 0 -19 -7 -26 -14 -10 -13 -16 -10 -41 18 -16 19 -29 42 -29 53
0 10 -9 44 -20 76 -24 69 -25 91 -3 128 20 33 33 37 33 11z m-703 -49 c-3 -10
-5 -2 -5 17 0 19 2 27 5 18 2 -10 2 -26 0 -35z m-27 4 c0 -25 -7 -39 -30 -55
-20 -15 -30 -18 -31 -10 -2 23 -17 -46 -18 -84 -1 -40 -21 -54 -21 -15 -1 20
-2 21 -14 5 -18 -24 -30 -22 -46 6 -22 41 17 129 46 105 9 -7 14 -4 19 10 7
24 21 27 28 9 3 -7 6 -3 6 10 1 21 21 33 21 11 0 -5 5 -7 10 -4 6 3 10 15 10
26 0 10 5 19 10 19 6 0 10 -15 10 -33z m3885 0 c26 -20 10 -25 -90 -29 -78 -3
-90 -1 -93 14 -3 13 6 18 40 21 92 8 125 6 143 -6z m-3925 -176 c0 -17 -5 -33
-11 -36 -15 -10 -17 -4 -12 33 6 40 23 42 23 3z m9820 -1 c22 -11 40 -24 40
-29 0 -5 7 -16 15 -24 15 -15 50 -8 101 20 24 14 58 7 96 -19 33 -23 33 -23
72 7 19 14 46 25 64 25 18 0 32 5 32 10 0 19 43 10 65 -14 12 -12 39 -26 60
-30 42 -8 47 -13 105 -100 28 -42 37 -63 31 -74 -5 -9 -5 -22 1 -32 8 -12 5
-27 -11 -58 -12 -23 -25 -42 -29 -42 -4 0 -19 -11 -33 -24 -14 -13 -35 -28
-47 -35 -17 -9 -20 -16 -12 -35 8 -21 5 -24 -22 -30 -41 -8 -105 3 -151 27
-20 10 -46 17 -56 14 -18 -4 -51 23 -51 43 0 13 -23 13 -36 0 -5 -5 -22 -6
-39 -1 -18 4 -37 4 -46 -2 -12 -8 -27 -5 -54 7 -39 19 -65 16 -65 -8 0 -23
-36 -28 -115 -17 -60 9 -72 8 -88 -7 -25 -23 -93 -25 -144 -6 -41 16 -44 16
-63 -1 -14 -13 -28 -16 -50 -11 -22 4 -32 1 -36 -9 -8 -20 -22 -19 -68 6 -29
15 -48 19 -78 14 -22 -4 -42 -13 -44 -20 -6 -16 -61 -5 -95 19 -34 23 -57 20
-90 -14 -27 -26 -32 -28 -57 -17 -58 25 -103 59 -113 85 -13 33 -2 271 13 290
24 29 104 -6 124 -55 8 -18 18 -33 23 -33 5 0 11 -10 15 -22 l6 -23 15 25 c8
14 17 32 21 40 20 42 67 67 76 40 2 -7 15 -5 36 5 25 13 39 14 61 7 21 -8 36
-7 55 3 14 8 26 11 26 7 0 -4 5 0 11 8 8 11 12 12 15 3 4 -8 19 -10 44 -7 21
3 54 1 73 -4 30 -9 40 -7 71 14 19 13 44 24 54 24 12 0 22 9 26 23 3 13 17 29
31 37 22 12 27 11 38 -3 22 -29 60 -31 87 -3 28 31 39 32 90 6z m-9789 -52
c-8 -21 -10 -21 -16 -5 -4 9 -4 29 0 45 7 27 7 27 16 5 5 -13 5 -33 0 -45z
m30 -21 c-8 -8 -11 -2 -11 19 0 40 14 54 18 19 2 -15 -1 -32 -7 -38z m556 -1
c-12 -30 -23 -16 -19 22 4 34 6 35 15 15 5 -12 7 -29 4 -37z m30 7 c-3 -10 -5
-2 -5 17 0 19 2 27 5 18 2 -10 2 -26 0 -35z m7653 -31 c0 -4 14 -28 32 -52 42
-56 55 -165 24 -198 -9 -10 -16 -31 -16 -47 0 -16 -10 -44 -22 -62 -19 -27
-29 -33 -59 -33 -40 0 -84 28 -94 60 -8 25 -22 26 -29 3 -9 -29 -52 -73 -71
-73 -9 0 -28 9 -42 20 -28 21 -53 26 -53 10 0 -16 -60 -12 -66 5 -7 16 -31 5
-70 -32 -13 -13 -35 -23 -50 -23 -31 0 -114 37 -114 51 0 18 -21 8 -32 -15
-14 -33 -57 -50 -89 -37 -38 16 -57 35 -64 64 -4 15 -11 27 -16 27 -5 0 -9 60
-9 134 0 131 0 134 25 150 32 21 125 22 125 2 0 -8 13 -29 30 -47 l30 -33 23
22 c13 12 27 19 30 15 4 -3 7 -1 7 7 0 10 3 10 15 0 12 -10 15 -10 15 4 0 21
65 23 73 2 5 -12 47 -15 102 -5 6 1 21 -1 35 -5 19 -5 32 0 54 21 18 17 31 23
34 15 2 -6 19 -14 38 -18 19 -3 34 -11 34 -18 1 -6 7 3 15 21 22 52 45 68 103
71 28 2 52 -1 52 -6z m-1657 -37 c14 -10 20 -31 24 -77 2 -35 9 -72 14 -83 5
-11 10 -45 11 -75 2 -43 7 -56 21 -58 15 -3 17 5 17 71 0 87 12 106 85 138 35
16 53 19 69 11 11 -5 32 -15 46 -21 21 -10 31 -9 55 3 17 9 46 19 65 22 19 4
43 15 53 25 10 11 23 19 30 19 27 -1 127 -114 127 -144 0 -24 47 -21 55 4 8
25 20 25 43 2 25 -26 41 -62 44 -102 l3 -35 -49 -3 c-27 -2 -62 2 -78 9 -24
10 -31 9 -48 -6 -21 -19 -28 -75 -10 -75 6 0 10 -18 10 -40 0 -50 -32 -97 -72
-105 -15 -4 -26 -10 -23 -15 13 -20 -79 -22 -95 -1 -3 3 -18 11 -35 16 -25 9
-31 16 -33 47 -2 27 -7 35 -18 31 -10 -3 -14 2 -14 19 0 23 -2 24 -72 23 -40
-1 -83 -5 -96 -9 -14 -5 -29 -3 -37 4 -20 16 -45 5 -45 -20 0 -17 -7 -20 -47
-22 -80 -3 -97 0 -115 23 -22 26 -25 84 -5 76 8 -3 14 0 15 6 14 100 13 124
-2 139 -9 9 -16 23 -17 30 0 7 -5 2 -10 -12 -6 -14 -10 -54 -9 -90 4 -126 1
-154 -13 -141 -10 8 -22 5 -47 -14 -40 -29 -121 -35 -146 -10 -27 27 -63 29
-87 7 -16 -15 -42 -23 -88 -28 -65 -6 -67 -6 -99 25 -36 33 -36 33 -86 -16
-17 -17 -35 -23 -64 -23 -79 0 -130 70 -130 176 0 43 5 65 15 74 8 7 15 21 15
31 0 17 36 46 53 41 4 -1 7 5 7 13 0 11 12 15 44 15 37 0 51 -6 80 -34 20 -18
36 -43 36 -55 0 -11 4 -21 9 -21 5 0 11 -9 13 -20 3 -19 5 -20 25 -5 l22 15
-20 34 c-20 34 -17 66 6 66 7 0 15 9 18 20 8 30 72 27 120 -5 20 -14 37 -30
37 -34 0 -16 40 1 51 20 5 11 15 19 23 19 21 0 76 56 76 78 0 26 31 44 68 40
35 -4 72 -59 72 -107 1 -30 2 -33 11 -18 6 9 14 15 19 12 4 -3 8 15 8 39 0 76
9 88 67 94 6 1 18 -5 28 -13z m-986 -54 c12 -18 21 -37 18 -41 -2 -4 -5 -65
-6 -135 -1 -125 -1 -128 25 -152 37 -34 36 -80 -1 -94 -52 -20 -123 11 -123
53 0 10 -5 18 -10 18 -7 0 -10 47 -9 135 2 126 0 137 -19 155 -17 17 -19 25
-11 52 5 18 9 34 9 36 0 2 4 1 8 -2 4 -2 14 0 22 5 30 19 73 6 97 -30z m-216
-28 c9 -9 1 -46 -18 -78 -9 -15 -14 -17 -26 -7 -15 13 -47 7 -47 -9 0 -5 -4
-9 -10 -9 -5 0 -10 5 -10 11 0 6 -7 17 -15 25 -8 8 -13 25 -11 37 3 12 5 25 5
29 2 15 117 16 132 1z m-1165 -124 c0 -62 -4 -79 -20 -79 -6 0 -12 -22 -14
-53 -2 -30 -9 -57 -17 -63 -8 -6 -16 -34 -19 -64 -3 -29 -8 -55 -11 -58 -3 -3
-27 -6 -53 -6 l-47 -1 3 60 c4 73 -6 145 -19 145 -5 0 -9 -6 -8 -12 1 -7 1
-37 0 -65 -1 -39 -5 -53 -15 -53 -10 0 -16 -14 -18 -42 -3 -39 -6 -43 -31 -46
-36 -4 -42 14 -23 70 9 24 17 53 19 64 2 10 7 26 10 34 3 8 13 44 22 80 10 36
19 72 23 80 3 8 6 21 6 29 2 23 31 34 69 27 l37 -7 0 -87 1 -87 24 70 c14 39
25 77 25 86 0 21 19 37 38 34 13 -2 17 -14 18 -56z m-1119 -2 c1 -27 -4 -40
-15 -45 -18 -7 -18 -8 -20 -77 -2 -33 -6 -45 -17 -45 -9 0 -15 -9 -16 -22 0
-19 -3 -46 -11 -107 -2 -20 3 -41 11 -41 5 0 12 8 14 18 4 13 5 11 6 -5 1 -13
7 -23 16 -23 8 0 15 -7 15 -16 0 -8 -4 -13 -9 -9 -5 3 -12 1 -16 -5 -7 -11
-94 -13 -111 -2 -14 8 -21 52 -12 67 3 6 11 36 18 68 6 32 18 70 26 85 7 14
16 46 20 69 3 24 10 43 15 43 6 0 5 9 -1 20 -6 11 -16 17 -25 14 -17 -7 -30
19 -21 41 4 13 19 15 68 13 l63 -3 2 -38z m1841 -5 c26 -25 37 -28 84 -26 73
2 118 -6 118 -22 0 -18 -7 -21 -78 -28 -79 -8 -102 -19 -102 -52 0 -30 -33
-45 -105 -47 -40 -2 -50 -6 -53 -21 -4 -17 1 -18 47 -14 47 5 51 3 51 -16 0
-12 -7 -32 -16 -44 -13 -18 -24 -22 -72 -22 -49 1 -60 4 -75 26 -10 13 -19 42
-19 64 0 41 -13 54 -21 23 -3 -10 -10 -39 -17 -65 -9 -32 -18 -48 -33 -52 -31
-8 -39 3 -35 45 5 54 -17 51 -28 -3 -8 -37 -13 -43 -36 -46 -24 -3 -28 0 -28
22 0 32 -27 25 -41 -10 -9 -25 -24 -30 -48 -15 -15 9 -9 37 34 166 7 22 18 61
25 86 11 44 13 45 53 48 23 1 69 4 101 6 33 2 65 0 72 -6 8 -6 10 -30 7 -72
-4 -57 -3 -61 11 -43 9 11 16 27 16 36 0 8 8 23 18 31 9 9 27 30 40 46 34 42
88 44 130 5z m-509 -21 c18 -12 19 -100 2 -110 -7 -5 -15 -41 -18 -85 -7 -90
-11 -93 -99 -94 -33 -1 -65 -2 -70 -3 -5 -1 -20 -1 -33 0 -22 1 -23 4 -19 49
5 54 40 110 73 118 32 8 58 12 78 13 12 1 17 9 17 31 0 25 -4 30 -24 30 -13 0
-26 -6 -29 -12 -3 -9 -10 -7 -21 7 -19 24 -21 52 -3 58 21 9 131 7 146 -2z
m-521 -60 c3 -41 2 -42 -25 -39 -16 2 -27 8 -25 16 1 7 -9 12 -26 12 -24 0
-28 -4 -26 -22 1 -13 3 -28 3 -35 1 -6 16 -13 34 -15 28 -3 32 -7 33 -33 2
-51 -8 -95 -22 -95 -8 0 -14 -9 -14 -19 0 -16 -9 -21 -42 -26 -24 -4 -63 -5
-88 -3 -44 3 -45 4 -45 38 0 33 2 35 38 38 28 2 37 0 37 -12 0 -22 42 -14 51
10 14 36 10 54 -13 54 -26 0 -35 6 -61 37 -12 13 -16 27 -11 35 5 7 9 19 11
27 1 8 9 18 17 23 9 5 16 15 16 23 0 15 20 22 80 28 69 7 75 4 78 -42z m-238
7 c0 -11 -5 -15 -15 -12 -11 5 -15 -1 -15 -20 0 -21 -5 -26 -25 -26 -16 0 -25
6 -25 15 0 9 -9 15 -25 15 -22 0 -25 -4 -25 -40 0 -39 1 -40 35 -40 26 0 35
-4 35 -16 0 -9 7 -22 17 -29 18 -13 10 -35 -13 -35 -8 0 -13 -4 -10 -9 10 -15
-5 -43 -20 -37 -8 3 -14 -4 -16 -17 -3 -20 -9 -22 -85 -25 l-82 -3 2 38 c3 35
5 38 35 41 26 3 32 0 32 -16 0 -15 5 -18 25 -14 14 2 25 11 25 18 0 8 4 14 9
14 5 0 11 9 14 19 4 16 -2 21 -30 28 -19 4 -35 13 -35 18 0 6 -9 16 -20 24
-18 12 -18 15 -4 30 9 10 13 21 10 24 -4 4 6 23 21 42 l27 36 79 -2 c68 -3 79
-6 79 -21z m-302 -21 c2 -15 9 -27 18 -27 8 0 14 -4 14 -10 0 -5 -7 -10 -15
-10 -9 0 -15 -10 -16 -27 -1 -16 -2 -35 -3 -43 -2 -8 -3 -25 -4 -37 -1 -13 -9
-23 -17 -23 -9 0 -15 -6 -14 -12 1 -7 1 -28 0 -46 -1 -30 -4 -33 -33 -33 -18
1 -62 0 -97 -2 -63 -2 -65 -1 -72 27 -10 37 0 86 17 86 8 0 19 11 24 24 7 20
18 25 68 31 47 5 61 11 65 26 3 10 1 22 -4 25 -5 3 -7 10 -4 15 7 10 4 11 -37
13 -21 1 -28 -3 -28 -16 0 -31 -17 -20 -23 15 -2 17 -3 34 0 37 5 6 99 17 133
16 20 -1 26 -7 28 -29z m10643 -40 c9 -3 30 2 48 10 24 12 35 13 44 4 6 -6 19
-11 29 -11 14 0 18 -8 18 -38 0 -25 7 -45 18 -55 16 -15 17 -25 9 -94 -5 -43
-16 -85 -23 -94 -8 -8 -14 -22 -14 -31 0 -36 -93 -75 -111 -47 -6 9 -12 10
-16 4 -15 -19 -120 -22 -165 -4 -24 10 -30 8 -47 -12 -17 -21 -21 -22 -46 -11
-24 11 -29 10 -40 -5 -13 -17 -16 -15 -52 19 -36 35 -42 38 -90 34 -28 -2 -56
-7 -62 -11 -23 -13 -58 4 -71 36 -15 34 -30 23 -30 -22 0 -44 -33 -64 -106
-64 -37 0 -68 -5 -72 -11 -15 -24 -291 -41 -348 -22 -23 8 -37 7 -62 -6 -39
-20 -96 -21 -112 -1 -7 9 -29 15 -54 15 -22 0 -48 5 -56 10 -8 5 -11 10 -7 10
22 0 -37 44 -60 45 -22 0 -29 7 -41 43 -15 45 -9 132 9 132 5 0 9 7 9 15 0 8
5 15 10 15 6 0 10 -4 10 -9 0 -4 11 -6 24 -4 21 4 25 12 31 58 4 32 13 60 25
70 17 15 19 14 39 -14 l22 -30 32 19 c53 33 59 34 91 20 17 -7 40 -12 51 -11
11 1 52 3 90 6 39 2 77 4 85 5 8 1 24 1 35 0 11 -1 39 4 62 10 24 7 51 9 60 5
10 -5 38 -10 62 -12 35 -3 47 1 62 18 17 20 22 21 43 9 13 -7 38 -25 56 -41
37 -34 55 -36 70 -9 12 23 49 26 118 10 35 -8 50 -7 85 8 70 32 78 33 113 16
32 -15 35 -15 60 5 15 12 33 21 40 21 8 0 24 11 36 25 l22 25 25 -23 c14 -13
33 -27 42 -30z m-11147 37 c18 -7 22 -35 4 -31 -6 1 -14 -7 -16 -18 -7 -33
-19 -38 -41 -16 -25 25 -31 26 -31 7 0 -8 -13 -17 -29 -21 -24 -5 -30 -13 -36
-43 -4 -20 -12 -40 -18 -44 -16 -9 -16 -48 0 -48 7 0 13 -7 13 -15 0 -9 9 -15
23 -15 16 0 18 3 9 9 -11 7 -10 10 3 15 9 3 28 6 41 6 21 0 24 -5 24 -34 0
-31 -3 -34 -44 -45 -25 -6 -63 -11 -85 -11 -34 0 -41 3 -41 19 0 10 -7 22 -16
25 -14 5 -16 16 -11 64 3 31 11 58 17 60 5 2 10 12 10 22 0 10 21 41 47 69 46
50 48 51 104 51 32 0 64 -3 73 -6z m706 -24 c0 -5 -4 -10 -10 -10 -5 0 -10 5
-10 10 0 6 5 10 10 10 6 0 10 -4 10 -10z m-1342 -27 c2 -13 8 -23 13 -23 5 0
9 -52 9 -119 l0 -119 -27 -6 c-17 -5 -29 -3 -34 6 -5 7 -8 59 -6 115 2 117 -7
139 -44 104 -21 -19 -24 -33 -27 -126 -3 -58 -7 -105 -11 -105 -3 0 -16 -3
-28 -6 -19 -5 -22 -1 -28 38 -3 23 -3 90 2 148 l8 105 45 5 c25 3 63 5 85 5
34 0 40 -3 43 -22z m-312 2 c13 -4 26 -21 33 -43 12 -41 31 -222 23 -235 -2
-5 -15 -6 -28 -3 -14 4 -48 0 -76 -9 -65 -19 -64 -19 -88 5 -33 33 -20 140 17
140 7 0 13 4 13 9 0 5 18 12 40 16 47 8 53 15 41 48 -8 21 -14 23 -55 20 -37
-3 -47 -1 -53 13 -14 37 65 61 133 39z m3216 -6 l22 -12 -23 -18 c-18 -15 -40
-19 -92 -19 -63 0 -69 2 -69 20 0 11 9 24 20 28 33 12 120 13 142 1z m-4002
-34 c0 -29 -5 -37 -26 -45 -38 -15 -84 -68 -84 -97 0 -18 4 -24 14 -20 8 3 17
-1 20 -9 3 -8 12 -14 20 -14 7 0 17 -7 20 -16 3 -8 10 -13 15 -10 11 7 19 -21
13 -46 -4 -18 -22 -25 -22 -9 0 5 -9 7 -20 4 -14 -4 -20 0 -20 11 0 9 -3 15
-7 15 -5 -1 -12 0 -18 1 -5 1 -17 3 -25 4 -8 0 -16 11 -18 24 -2 14 -10 22
-22 22 -29 0 -52 29 -45 58 9 36 38 72 53 67 8 -3 16 3 19 14 4 17 29 32 58
35 6 1 13 9 18 20 6 15 10 16 22 6 12 -10 15 -9 15 4 0 9 5 16 10 16 6 0 10
-16 10 -35z m227 18 c3 4 12 2 20 -4 9 -9 13 -8 13 0 0 6 5 11 10 11 6 0 10
-14 10 -30 0 -19 -5 -30 -12 -29 -7 1 -30 1 -50 0 -33 -1 -38 -4 -38 -25 0
-22 18 -38 46 -40 7 -1 24 -14 38 -29 63 -67 11 -154 -97 -164 -50 -4 -56 -3
-62 17 -4 12 -4 33 0 47 5 21 10 24 33 18 15 -4 29 -7 32 -7 48 -4 58 36 11
47 -16 3 -32 13 -35 21 -3 8 -14 14 -25 14 -15 0 -22 9 -27 35 -12 65 17 117
66 119 16 1 30 5 30 10 0 5 7 3 15 -4 9 -7 18 -10 22 -7z m313 7 c3 -1 8 -2
12 -1 7 1 38 -126 38 -155 0 -31 -42 -112 -64 -123 -12 -7 -34 -13 -50 -14
-32 -3 -42 -16 -51 -67 -7 -42 -24 -71 -32 -52 -2 6 -11 12 -19 12 -12 0 -14
32 -14 185 0 174 1 185 21 204 17 15 33 18 87 16 37 -1 69 -3 72 -5z m9789
-171 c6 -8 22 -27 35 -43 l23 -28 -23 -42 c-15 -26 -40 -51 -66 -66 -24 -13
-46 -28 -50 -34 -12 -18 -28 6 -33 49 -11 79 -43 73 -69 -12 -26 -84 -43 -104
-98 -110 -33 -4 -53 -1 -69 11 -31 21 -45 20 -69 -4 -22 -22 -55 -26 -65 -9
-4 6 -19 7 -36 4 -39 -9 -69 2 -69 25 0 20 -36 46 -56 42 -7 -1 -15 14 -18 33
-5 27 -1 47 15 80 25 49 26 50 52 31 18 -14 24 -56 7 -56 -5 0 -10 -7 -10 -15
0 -8 4 -15 10 -15 11 0 32 35 24 42 -8 9 19 61 43 85 18 17 29 20 46 14 15 -6
33 -3 55 8 31 14 35 14 47 -2 16 -22 18 -22 56 12 27 25 35 28 53 18 11 -7 24
-15 27 -19 3 -5 18 -9 35 -10 16 -1 43 -12 60 -25 29 -22 32 -22 45 -6 8 10
26 42 39 71 l24 52 11 -34 c7 -18 17 -40 24 -47z m612 44 c22 -26 70 -42 96
-32 13 5 23 7 23 6 0 -1 -4 -17 -9 -35 -6 -20 -6 -32 0 -32 5 0 9 -9 9 -20 0
-11 -4 -20 -9 -20 -5 0 -11 -12 -13 -27 -2 -22 -9 -29 -31 -31 -20 -2 -27 -8
-23 -18 3 -7 2 -13 -2 -13 -22 4 -40 -4 -66 -27 l-28 -27 -28 33 c-24 28 -31
31 -44 21 -11 -9 -20 -10 -35 -1 -25 13 -28 55 -7 97 8 15 24 51 35 78 20 52
22 53 107 64 6 0 18 -6 25 -16z m-414 -19 c-3 -4 -2 -15 4 -25 12 -24 56 -25
88 -3 23 16 24 16 42 -7 13 -18 15 -26 6 -32 -7 -5 1 -6 18 -2 59 12 60 11 63
-23 3 -29 0 -34 -27 -43 -17 -6 -31 -16 -31 -21 0 -6 -11 -8 -24 -4 -27 7 -34
-4 -32 -46 2 -41 -22 -43 -55 -4 -29 33 -30 33 -67 21 -34 -12 -39 -12 -59 8
-26 23 -29 56 -11 90 33 59 62 97 76 97 8 0 12 -3 9 -6z m-1892 -100 l26 -45
45 39 c40 36 94 54 94 31 0 -5 9 -9 19 -9 11 0 23 -4 26 -10 10 -16 48 -11 75
10 14 11 33 20 43 20 9 0 17 5 17 10 0 21 76 10 110 -15 19 -14 40 -23 46 -21
15 6 64 -41 65 -62 0 -9 2 -43 4 -75 3 -49 0 -61 -18 -77 -12 -11 -42 -38 -67
-60 -52 -47 -72 -55 -98 -41 -13 7 -31 7 -53 1 -24 -7 -43 -7 -62 1 -21 9 -34
9 -53 0 -14 -6 -29 -9 -34 -6 -5 3 -11 1 -15 -5 -19 -30 -125 12 -125 49 0 10
-5 13 -31 15 -6 1 -19 -15 -28 -34 -14 -30 -21 -35 -51 -35 -29 0 -37 5 -49
30 -8 17 -17 32 -21 35 -4 3 -9 14 -11 25 -3 11 -8 20 -13 20 -10 0 -14 -7
-47 -78 -13 -26 -31 -55 -41 -64 -17 -15 -21 -15 -58 6 -45 25 -104 21 -120
-9 -14 -26 -103 -35 -157 -16 -28 10 -45 11 -49 5 -8 -14 -101 -8 -145 9 -53
20 -60 68 -38 261 10 85 14 99 27 92 10 -5 31 -1 59 11 38 17 48 17 78 7 19
-7 35 -18 35 -23 0 -6 5 -5 12 2 19 19 55 14 75 -12 15 -19 23 -22 37 -14 13
7 30 7 55 0 52 -16 71 -12 77 15 4 12 10 21 14 18 5 -3 12 4 15 16 6 17 9 19
16 8 5 -8 9 -9 9 -4 0 6 16 11 35 12 19 2 35 -1 35 -5 0 -5 16 -26 35 -48 25
-28 35 -34 35 -21 0 9 7 17 15 17 10 0 15 10 15 34 0 34 1 35 43 38 58 4 63 2
92 -48z m-1031 -2 c10 -9 25 -32 33 -49 11 -27 19 -33 43 -33 45 0 60 -31 60
-123 0 -96 -17 -129 -64 -127 -49 3 -56 1 -56 -15 0 -8 -5 -15 -11 -15 -5 0
-22 -13 -37 -29 -25 -27 -31 -28 -97 -26 -38 2 -83 6 -98 10 -21 6 -31 3 -41
-10 -11 -15 -17 -16 -48 -6 -28 9 -40 9 -63 -3 -24 -13 -31 -13 -61 2 -31 14
-37 14 -69 -1 -22 -11 -35 -13 -35 -6 0 7 -5 8 -12 2 -24 -17 -67 -14 -95 6
-15 11 -35 21 -43 22 -18 3 -83 -35 -74 -44 4 -3 -14 2 -39 11 -25 10 -54 29
-65 42 -20 25 -22 30 -23 53 0 6 -10 -9 -22 -34 -35 -73 -81 -105 -107 -74
-17 21 -36 19 -60 -7 -18 -20 -24 -21 -52 -10 -25 9 -34 9 -40 -1 -6 -11 -38
-12 -123 -6 -19 1 -68 -3 -181 -17 -27 -3 -69 -1 -93 6 -36 9 -46 9 -60 -4
-10 -9 -23 -16 -29 -16 -7 0 -12 -4 -12 -10 0 -5 -9 -10 -20 -10 -11 0 -20 4
-20 9 0 4 -18 8 -40 8 -51 0 -90 33 -90 75 0 17 -4 27 -10 23 -6 -4 -10 23
-10 74 0 45 4 81 10 81 5 0 12 15 15 33 6 30 39 57 70 57 7 0 17 11 23 25 6
14 16 25 22 25 5 0 10 6 10 14 0 23 23 34 59 29 22 -4 35 -12 38 -24 3 -11 9
-20 14 -20 14 -2 22 -5 52 -17 16 -7 50 -9 85 -6 73 8 98 7 123 -7 23 -12 96
-3 117 14 10 8 19 7 33 -1 10 -7 19 -9 19 -4 0 4 8 8 18 9 9 1 44 8 76 17 90
23 113 14 175 -64 l20 -25 2 60 c2 87 11 115 42 138 21 16 30 18 39 9 7 -7 18
-12 25 -12 24 0 73 -64 73 -96 0 -12 5 -14 18 -8 9 4 32 8 51 10 18 1 53 8 78
14 39 11 45 11 57 -5 12 -17 16 -17 57 -3 31 10 54 12 78 6 19 -5 43 -7 53 -5
10 3 21 1 24 -4 9 -15 39 -10 60 9 10 9 38 26 61 36 26 12 44 27 47 41 10 38
81 41 120 7z m-1914 -137 c0 -36 -11 -44 -47 -37 -18 3 -23 11 -23 37 0 31 2
33 35 33 33 0 35 -2 35 -33z m-1198 -44 c8 -10 20 -26 25 -36 9 -16 11 -15 16
7 5 20 12 24 41 23 18 0 41 -7 50 -14 20 -16 23 -92 4 -88 -8 1 -14 -11 -16
-28 -2 -16 -8 -35 -13 -41 -5 -6 -6 -14 -2 -17 12 -13 32 -7 60 19 23 21 25
28 15 44 -15 24 -16 50 -2 50 6 0 10 6 10 14 0 8 7 17 16 20 24 9 64 7 64 -3
0 -5 18 -18 39 -29 39 -20 39 -20 57 -1 9 10 25 19 36 19 10 0 18 7 18 15 0
10 11 15 33 16 17 1 50 2 72 3 22 2 34 1 28 -1 -25 -9 -13 -21 26 -27 24 -4
55 0 81 9 23 8 54 16 69 16 24 2 24 2 3 6 -12 2 -20 9 -17 14 9 14 42 11 48
-5 3 -7 19 -16 36 -19 43 -9 84 -54 76 -84 -5 -22 -3 -23 50 -23 30 0 55 -4
55 -9 0 -13 -27 -21 -71 -21 -35 0 -39 -3 -39 -25 0 -20 -9 -29 -42 -44 -24
-11 -52 -21 -63 -23 -14 -2 -21 -12 -23 -35 -2 -21 -9 -33 -23 -36 -13 -4 -19
-12 -17 -24 2 -10 -3 -18 -9 -17 -37 3 -42 5 -38 17 3 7 -4 13 -17 14 -48 4
-69 10 -80 21 -17 17 -38 15 -38 -3 0 -13 -37 -24 -85 -23 -98 1 -189 -10
-200 -25 -15 -21 -45 -22 -45 -1 0 8 -5 12 -10 9 -6 -4 -8 -10 -5 -15 3 -4 -2
-11 -11 -14 -24 -9 -34 -7 -34 8 0 8 -15 17 -34 20 -36 7 -86 -7 -86 -24 0 -5
-11 -10 -25 -10 -18 0 -29 8 -37 28 -7 15 -13 29 -14 30 -1 2 -12 -6 -23 -17
-28 -28 -88 -26 -97 2 -6 20 -7 20 -23 1 -34 -41 -61 -56 -111 -61 -60 -6 -90
13 -90 58 0 34 12 43 62 41 46 -2 48 10 8 48 -24 23 -30 36 -30 70 0 36 6 48
40 81 34 33 46 39 84 39 52 0 78 -21 74 -59 -2 -21 -10 -28 -40 -35 -42 -10
-48 -21 -19 -31 10 -3 22 -16 25 -29 6 -26 44 -42 52 -22 3 7 6 29 7 48 1 20
7 42 14 49 8 11 24 73 27 111 1 3 13 20 29 37 31 35 56 39 79 12z m-956 -36
c3 -8 -1 -24 -10 -37 -9 -12 -16 -35 -16 -51 0 -15 -6 -40 -14 -55 -7 -15 -16
-48 -20 -73 -4 -26 -13 -55 -21 -65 -8 -11 -15 -27 -15 -36 0 -17 26 -37 45
-35 6 1 11 -10 13 -25 4 -32 -19 -41 -84 -36 l-39 3 1 82 c1 52 7 94 17 115 9
19 19 53 23 76 4 24 11 45 15 48 5 3 9 10 9 16 0 6 -3 8 -6 5 -4 -3 -15 5 -26
18 -15 19 -17 29 -8 45 9 17 21 20 71 20 43 0 61 -4 65 -15z m524 -91 c20 -35
3 -58 -48 -65 -52 -7 -62 -16 -29 -25 15 -3 29 -15 32 -25 4 -10 11 -19 16
-19 15 0 10 -76 -6 -90 -8 -7 -15 -17 -15 -22 0 -5 -12 -20 -27 -33 -22 -19
-39 -24 -83 -25 -62 0 -80 11 -80 50 0 44 12 52 64 45 56 -9 59 2 11 48 -49
48 -49 93 3 147 35 37 41 40 93 40 49 0 57 -3 69 -26z m-266 -16 c19 -27 21
-100 4 -131 -6 -12 -15 -46 -19 -76 -4 -30 -14 -60 -21 -67 -7 -7 -51 -16
-100 -20 l-87 -7 -7 27 c-3 15 -4 46 -1 68 7 49 54 98 95 98 15 1 37 6 50 14
20 11 21 14 9 25 -9 7 -26 9 -41 5 -21 -5 -27 -2 -34 17 -12 30 -4 57 17 62 9
3 39 5 68 6 43 1 55 -3 67 -21z m-1708 -54 c-3 -33 -2 -34 33 -34 72 0 82 -35
11 -42 -19 -2 -34 -7 -33 -13 1 -5 -3 -15 -8 -22 -7 -7 -6 -14 1 -18 8 -5 7
-11 -1 -22 -10 -12 -10 -16 2 -24 9 -6 10 -12 4 -16 -13 -10 -16 -63 -4 -63 5
0 9 -6 9 -14 0 -10 13 -16 38 -18 25 -2 37 -8 37 -18 0 -12 -14 -15 -65 -15
-56 0 -65 2 -62 18 2 10 -3 17 -13 17 -18 0 -19 12 -3 28 9 9 9 12 0 12 -7 0
-12 7 -12 15 0 8 8 15 17 15 15 0 14 2 -3 14 -19 15 -19 15 1 30 18 14 18 15
3 16 -21 0 -24 16 -5 23 9 4 9 8 -2 15 -7 5 -11 14 -7 20 3 6 -4 12 -16 14
-13 2 -24 11 -26 21 -3 13 3 17 23 17 20 0 26 4 21 15 -4 10 2 19 17 24 20 8
20 10 4 16 -17 7 -17 8 0 20 26 20 42 8 39 -31z m1202 40 c17 -5 22 -14 22
-38 0 -18 -5 -37 -11 -43 -12 -12 -49 -6 -49 9 0 14 -31 5 -55 -17 -12 -11
-25 -32 -29 -47 -3 -16 -11 -28 -16 -28 -6 0 -10 -15 -10 -34 0 -41 22 -53 57
-31 36 24 63 11 62 -28 -1 -30 -1 -31 -9 -7 -7 25 -7 25 -11 -5 -4 -28 -7 -31
-64 -39 l-59 -9 -33 38 c-23 26 -30 42 -23 49 5 5 10 23 10 38 0 35 50 138 67
138 7 0 13 6 13 14 0 20 17 29 65 37 22 4 42 7 45 8 3 0 15 -2 28 -5z m-2064
-13 c4 -5 8 -30 11 -56 2 -26 7 -50 10 -53 3 -3 28 -5 55 -3 l49 2 20 -44 c25
-55 23 -184 -3 -199 -9 -5 -16 -16 -16 -24 0 -22 -37 -32 -110 -30 l-65 1 1
160 c1 88 4 178 7 200 3 22 6 43 6 48 1 10 29 9 35 -2z m590 -7 c13 -5 14 -9
5 -20 -8 -10 -8 -14 0 -14 6 0 11 -9 11 -20 0 -17 7 -20 40 -20 29 0 40 -4 40
-15 0 -10 -14 -17 -40 -21 -43 -7 -43 -8 -42 -86 1 -21 -4 -38 -10 -38 -7 0
-6 -5 2 -15 6 -8 9 -19 6 -24 -4 -5 -1 -13 5 -16 5 -4 8 -13 5 -21 -4 -11 5
-14 40 -12 24 1 50 -4 56 -10 15 -15 -55 -34 -111 -30 -51 3 -51 4 -51 125 0
87 -12 123 -40 123 -34 0 -23 27 14 34 18 4 34 12 33 19 -2 63 5 73 37 61z
m876 -40 c0 -9 8 -23 18 -30 14 -11 14 -15 3 -23 -7 -5 -9 -11 -4 -14 6 -4 9
-47 7 -98 -4 -93 -11 -112 -44 -106 -12 2 -16 22 -18 97 -1 52 -5 102 -9 110
-3 8 -7 20 -7 25 -1 6 -12 12 -26 13 -20 3 -22 2 -11 -11 10 -13 9 -17 -6 -25
-15 -9 -17 -25 -16 -110 l0 -100 -26 -5 c-14 -3 -29 -3 -32 -1 -4 2 -6 48 -4
101 1 54 3 117 4 140 1 42 1 42 44 46 105 9 127 8 127 -9z m10083 -8 c32 -32
41 -74 28 -131 -7 -30 -10 -59 -7 -63 11 -18 -20 -45 -42 -38 -31 10 -44 63
-36 148 8 93 24 116 57 84z m167 -2 c0 -11 6 -15 20 -11 31 8 43 -16 32 -66
-6 -28 -6 -51 0 -62 7 -11 6 -21 -1 -28 -6 -6 -11 -19 -11 -29 0 -27 -49 -36
-67 -13 -7 11 -13 15 -13 10 0 -6 -8 6 -18 25 -20 40 -23 161 -4 168 7 2 12
-4 12 -13 0 -9 5 -13 10 -10 6 4 8 15 5 26 -5 15 -1 19 14 19 13 0 21 -6 21
-16z m-10520 -14 c0 -11 7 -20 15 -20 13 0 21 -33 16 -64 -1 -4 3 -14 9 -21 8
-10 8 -15 0 -20 -6 -4 -9 -13 -6 -21 3 -7 1 -16 -3 -19 -5 -3 -7 -14 -4 -25 3
-12 -1 -22 -11 -26 -9 -3 -16 -13 -16 -20 0 -20 -42 -34 -97 -34 -40 0 -45 2
-40 20 4 15 0 20 -14 20 -20 0 -22 10 -21 105 1 88 2 94 21 100 10 3 21 15 24
25 4 17 14 20 66 20 54 0 61 -2 61 -20z m10202 15 c20 -8 12 -204 -9 -227 -20
-23 -28 -23 -53 2 -16 16 -25 18 -45 10 -15 -6 -28 -10 -30 -10 -10 0 -14 72
-8 135 8 69 9 70 43 82 38 13 80 16 102 8z m-11540 -56 c-2 -7 4 -19 13 -25
14 -10 12 -14 -14 -25 -16 -7 -32 -21 -34 -30 -3 -9 -19 -20 -36 -24 -27 -6
-31 -11 -31 -40 0 -29 4 -34 31 -40 17 -4 33 -13 36 -21 3 -8 12 -14 19 -14 8
0 17 -7 20 -15 7 -18 -21 -61 -31 -46 -3 6 -15 11 -26 11 -10 0 -19 7 -19 15
0 13 -18 20 -42 16 -4 0 -12 8 -18 19 -6 11 -17 20 -25 20 -18 0 -29 41 -21
75 4 16 13 25 26 25 11 0 20 6 20 13 0 13 83 77 100 77 6 0 10 7 10 16 0 9 6
14 13 11 6 -2 11 -11 9 -18z m574 6 c18 -14 18 -14 0 -15 -15 0 -16 -3 -6 -15
10 -12 10 -18 0 -30 -9 -10 -9 -15 -1 -15 6 0 11 -7 11 -15 0 -8 -5 -15 -11
-15 -8 0 -8 -4 0 -14 9 -10 9 -16 1 -21 -8 -5 -7 -11 2 -23 11 -12 11 -16 0
-20 -10 -3 -10 -7 -1 -19 10 -12 10 -16 -2 -24 -12 -8 -12 -10 1 -19 29 -18
-6 -31 -97 -37 l-90 -5 -5 29 c-8 41 -3 236 6 251 9 15 52 16 61 2 3 -6 -1
-13 -9 -16 -9 -4 -13 -11 -8 -18 4 -6 8 -47 8 -91 3 -118 2 -115 24 -115 13 0
24 10 30 25 5 14 13 25 17 25 5 0 8 42 7 92 -1 115 14 140 62 103z m10747 -60
c-8 -26 -8 -38 3 -52 7 -10 14 -26 14 -37 0 -15 -3 -16 -15 -6 -8 6 -18 9 -23
6 -5 -3 -16 2 -25 12 -15 16 -15 22 1 72 24 77 33 89 45 62 7 -15 7 -34 0 -57z
m-1703 0 c0 -22 33 -18 65 6 36 29 105 35 136 11 13 -10 35 -23 49 -30 44 -23
62 -40 55 -53 -7 -10 -8 -112 -2 -174 1 -12 -8 -24 -26 -33 -18 -9 -30 -24
-34 -44 -5 -27 -9 -29 -37 -25 -17 2 -45 9 -63 15 -26 8 -36 7 -53 -8 -30 -26
-112 -34 -151 -15 -29 15 -32 15 -46 -2 -8 -10 -12 -13 -9 -7 7 14 -35 12
-132 -5 -52 -10 -67 -9 -93 4 -29 15 -32 15 -44 -2 -8 -10 -22 -35 -31 -55
l-17 -38 -63 0 c-54 0 -65 -3 -78 -22 -24 -33 -66 -25 -149 29 -40 25 -75 51
-79 57 -5 8 -12 8 -25 0 -29 -17 -125 -17 -148 0 -32 25 -42 19 -70 -38 l-26
-54 -50 13 c-55 15 -82 11 -121 -18 -24 -18 -32 -19 -68 -8 -22 6 -45 9 -51 5
-6 -3 -20 4 -31 16 -19 20 -20 32 -17 170 l4 149 34 35 c43 44 118 76 131 56
13 -20 101 -15 149 9 51 26 65 26 90 0 l20 -22 45 27 c53 31 79 33 106 6 25
-25 51 -25 92 0 18 11 42 20 53 20 11 0 29 7 39 15 22 17 61 20 51 5 -12 -20
96 -15 137 6 30 15 72 19 64 5 -3 -4 3 -16 14 -26 19 -17 21 -17 46 0 15 10
50 19 78 21 28 2 89 10 136 17 87 14 120 9 120 -18z m-2085 -115 c-4 -6 5 -26
19 -45 14 -18 26 -40 26 -48 0 -17 38 -53 68 -62 25 -7 30 -35 6 -35 -8 0 -22
-16 -30 -35 -8 -19 -20 -35 -28 -35 -8 0 -16 -8 -20 -17 -7 -22 -23 -46 -56
-84 -31 -36 -68 -38 -108 -4 -26 22 -32 23 -56 12 -15 -7 -29 -22 -32 -34 -7
-27 -24 -29 -64 -8 -18 9 -31 11 -35 5 -3 -6 -35 -10 -69 -10 -44 0 -67 -5
-76 -15 -7 -9 -29 -15 -51 -15 -30 0 -47 8 -78 35 -21 19 -41 35 -44 35 -4 0
-15 -10 -26 -21 -31 -33 -88 -31 -114 3 -18 24 -21 43 -21 125 -1 106 9 177
25 168 5 -4 9 -1 9 5 0 9 98 60 115 60 3 0 5 -10 5 -22 0 -37 11 -68 24 -68 6
1 27 14 46 30 39 34 53 36 105 14 27 -11 49 -13 79 -7 22 4 50 6 60 5 11 -1
35 5 54 14 33 15 69 13 58 -5 -9 -14 29 -20 45 -7 8 6 15 18 17 26 6 26 20 36
53 38 18 2 35 5 38 7 9 10 62 5 56 -5z m-6445 -10 c0 -5 -2 -10 -4 -10 -3 0
-8 5 -11 10 -3 6 -1 10 4 10 6 0 11 -4 11 -10z m10590 -24 c0 -3 -4 -8 -10
-11 -5 -3 -10 -1 -10 4 0 6 5 11 10 11 6 0 10 -2 10 -4z m-5668 -84 c-2 -12 2
-22 7 -22 6 0 11 -7 11 -15 0 -19 14 -19 29 -2 16 20 77 35 141 36 39 0 51 -2
40 -9 -12 -8 -11 -10 7 -10 12 0 26 6 30 13 9 15 136 41 170 35 12 -2 37 -21
55 -42 29 -35 35 -37 70 -32 62 10 77 -10 73 -104 -4 -104 -13 -119 -68 -117
-36 2 -50 -4 -80 -30 -34 -30 -95 -51 -114 -40 -4 3 -24 -3 -42 -13 -27 -13
-41 -15 -63 -8 -20 7 -45 5 -91 -6 -81 -20 -77 -21 -127 13 l-43 29 -24 -29
c-35 -41 -84 -40 -125 1 -21 21 -36 29 -49 25 -10 -4 -19 -10 -19 -14 0 -5
-17 -20 -38 -35 -37 -25 -40 -26 -86 -12 -26 8 -53 19 -60 25 -10 9 -19 3 -37
-24 -29 -42 -69 -54 -106 -30 -23 15 -27 16 -34 2 -7 -11 -17 -13 -43 -7 -18
4 -39 11 -46 15 -8 5 -18 2 -25 -8 -6 -9 -32 -22 -56 -28 -39 -10 -50 -10 -83
6 -21 10 -41 25 -44 34 -3 9 -12 21 -19 26 -10 8 -12 46 -6 184 5 152 9 175
25 191 16 15 25 16 55 7 19 -6 37 -17 40 -24 3 -7 18 -13 33 -13 39 0 60 -9
60 -26 0 -10 13 -14 45 -14 24 0 48 -6 52 -12 11 -18 36 -16 51 5 16 21 41 22
78 3 26 -14 29 -14 50 16 13 17 25 36 27 42 2 6 38 12 80 14 73 4 77 3 77 -17
0 -12 6 -21 15 -21 8 0 15 4 15 9 0 18 56 44 109 51 77 10 87 8 83 -18z m2087
-72 c0 -44 -5 -80 -10 -80 -5 0 -9 15 -9 34 0 39 11 126 16 126 2 0 3 -36 3
-80z m-4219 -44 c0 -20 38 -30 55 -16 17 15 70 9 71 -7 1 -7 2 -17 3 -21 0 -5
33 -4 72 1 65 8 72 7 93 -12 36 -34 92 -24 144 26 20 19 112 17 112 -2 0 -8 7
-15 15 -15 9 0 18 -7 21 -15 6 -13 8 -14 18 -1 17 21 100 36 210 37 47 1 88
-35 90 -77 1 -20 7 -30 22 -34 28 -7 17 -38 -23 -69 -89 -70 -108 -81 -134
-81 -17 0 -29 -5 -29 -13 0 -7 -13 -23 -30 -35 -30 -23 -60 -29 -60 -13 0 10
-25 9 -36 -1 -9 -9 -36 2 -58 24 -18 19 -19 19 -37 -11 -18 -31 -19 -31 -96
-27 -43 1 -88 -1 -100 -5 -11 -4 -79 -10 -150 -13 -70 -3 -145 -8 -165 -12
-24 -4 -43 -2 -52 5 -10 9 -16 9 -21 1 -4 -6 -12 -7 -18 -3 -14 10 -88 9 -105
-1 -6 -4 -34 -10 -62 -13 -44 -5 -48 -7 -33 -19 18 -14 17 -14 -64 -14 -5 0
-8 6 -8 13 -1 6 -6 11 -13 9 -7 -1 -23 7 -35 18 -20 20 -22 20 -34 4 -7 -10
-13 -15 -13 -11 0 8 -14 -2 -51 -35 -24 -23 -97 -24 -105 -3 -4 8 -10 12 -15
9 -5 -3 -14 7 -19 22 -15 38 10 74 50 74 37 0 38 13 4 48 -58 61 -2 173 93
186 85 11 127 -51 67 -99 -23 -18 -25 -24 -15 -42 6 -12 11 -30 11 -40 0 -10
9 -26 20 -36 19 -16 23 -16 51 -2 22 12 28 20 20 29 -6 6 -13 31 -17 55 -5 29
-10 38 -15 29 -6 -9 -9 -4 -9 15 0 15 3 26 8 25 4 -2 24 16 45 38 25 28 48 43
71 47 45 7 76 -1 69 -19 -3 -9 1 -14 12 -14 10 0 15 -6 13 -17 -2 -10 -9 -17
-15 -16 -7 2 -12 -5 -12 -15 0 -9 -3 -29 -7 -44 -5 -23 -3 -28 13 -28 16 0 24
13 38 65 9 36 21 65 26 65 4 0 11 17 15 37 4 20 18 47 33 59 29 26 71 32 71
10z m763 -3 c-7 -2 -19 -2 -25 0 -7 3 -2 5 12 5 14 0 19 -2 13 -5z m-1710 -37
c20 -16 22 -57 3 -94 -7 -15 -16 -47 -20 -71 -4 -24 -13 -53 -21 -64 -23 -32
-19 -109 5 -130 26 -22 25 -33 -5 -62 -33 -34 -70 -32 -106 6 -32 34 -37 69
-15 111 8 14 17 46 21 70 4 24 12 46 17 49 19 12 22 95 4 120 -22 33 -20 58 7
69 33 13 90 11 110 -4z m266 -107 c22 -18 23 -24 18 -87 -3 -37 -8 -74 -10
-82 -29 -109 -29 -109 -59 -115 -16 -4 -31 -12 -34 -19 -3 -7 -10 -13 -17 -13
-7 0 -28 -4 -47 -7 -30 -6 -40 -3 -65 20 -24 22 -29 34 -28 68 1 22 7 42 13
44 5 2 10 8 10 14 0 17 56 67 84 74 28 7 36 24 11 24 -18 0 -35 38 -27 60 15
44 107 56 151 19z m-470 -33 c8 -9 8 -21 0 -45 -10 -29 -14 -31 -60 -31 -27 0
-49 -4 -49 -9 0 -5 -7 -17 -16 -26 -23 -23 -34 -81 -20 -101 12 -15 14 -16 38
0 20 13 27 14 36 4 20 -26 17 -54 -10 -81 -22 -21 -37 -27 -73 -27 -25 0 -45
5 -45 10 0 6 -7 10 -15 10 -8 0 -15 5 -15 10 0 6 -7 10 -15 10 -37 0 -5 161
41 207 8 8 14 19 14 24 0 5 6 9 14 9 8 0 17 9 21 19 7 22 26 28 96 30 28 0 51
-4 58 -13z m-593 -73 c25 -51 22 -230 -3 -248 -10 -8 -25 -10 -38 -5 -18 7
-20 15 -17 81 3 91 -5 139 -22 139 -27 0 -35 -28 -37 -121 -1 -105 -12 -125
-58 -108 -23 9 -23 10 -18 140 3 88 9 134 17 139 7 4 33 8 57 8 25 1 48 4 51
7 3 3 16 5 28 5 17 0 28 -10 40 -37z m-292 11 c9 -3 16 -15 16 -25 0 -10 4
-19 10 -19 5 0 7 -7 3 -16 -3 -9 0 -20 8 -25 9 -6 10 -12 4 -16 -11 -9 -15
-103 -5 -103 4 0 7 -17 6 -37 -1 -36 -3 -38 -36 -40 -19 -1 -60 -5 -92 -9 -54
-6 -57 -5 -74 22 -21 31 -20 71 2 95 8 8 14 20 14 26 0 13 33 23 78 23 27 0
32 4 32 24 0 23 -23 56 -38 56 -4 0 -16 -9 -25 -21 -25 -28 -42 -19 -42 22 0
34 0 34 55 40 30 3 58 6 62 7 3 1 13 -1 22 -4z m-754 -30 c0 -8 -5 -12 -10 -9
-6 4 -8 11 -5 16 9 14 15 11 15 -7z m505 -4 c0 -8 7 -18 15 -21 11 -4 15 -24
16 -78 1 -39 -2 -73 -7 -76 -4 -3 -5 -13 -2 -22 4 -9 -1 -19 -10 -25 -10 -5
-17 -16 -17 -24 0 -16 -39 -34 -76 -34 -13 0 -25 -3 -26 -7 -3 -15 -8 -68 -9
-85 0 -18 -40 -35 -57 -24 -5 3 -7 78 -5 168 7 262 -1 232 63 239 83 9 115 6
115 -11z m-535 0 c0 -5 -4 -10 -10 -10 -5 0 -10 5 -10 10 0 6 5 10 10 10 6 0
10 -4 10 -10z m290 -14 c0 -8 -6 -17 -12 -19 -10 -4 -9 -8 2 -16 13 -10 13
-12 0 -21 -22 -14 -40 -12 -40 5 0 22 -53 19 -67 -4 -10 -16 -9 -20 8 -24 12
-3 17 -11 13 -21 -5 -13 2 -16 45 -16 28 0 51 -4 51 -10 0 -5 -4 -10 -10 -10
-5 0 -10 -4 -10 -10 0 -5 5 -9 12 -7 17 3 19 -63 2 -70 -8 -3 -14 -13 -14 -23
0 -10 -8 -21 -17 -24 -45 -13 -96 -18 -127 -12 -30 6 -33 10 -32 39 1 29 5 32
34 35 24 2 32 0 30 -10 -6 -28 44 -24 57 5 19 42 8 57 -42 57 -40 0 -45 2 -40
19 3 14 -1 21 -14 23 -11 2 -20 6 -19 11 0 4 0 18 0 32 0 15 7 29 18 33 9 4
17 14 17 22 0 17 38 27 108 29 34 1 47 -3 47 -13z m-260 -21 c0 -8 -14 -17
-34 -21 -24 -4 -33 -10 -29 -20 6 -16 -42 -38 -60 -27 -6 4 -8 0 -4 -10 3 -9
1 -19 -4 -23 -7 -4 -7 -10 -1 -16 6 -6 8 -17 5 -24 -4 -10 4 -14 32 -14 32 0
36 -2 30 -20 -6 -17 -2 -20 29 -20 48 0 49 -27 2 -35 -48 -10 -72 -3 -68 19 2
10 0 16 -5 13 -14 -8 -53 12 -53 28 0 9 -5 13 -10 10 -18 -11 -39 15 -36 43 2
16 11 31 24 37 11 5 23 17 25 27 3 10 14 18 26 18 14 0 25 9 31 25 8 22 16 25
55 25 33 0 45 -4 45 -15z m2130 -81 c0 -8 -4 -12 -10 -9 -5 3 -10 13 -10 21 0
8 5 12 10 9 6 -3 10 -13 10 -21z m-1230 -548 c0 -8 14 -17 30 -21 17 -4 30
-13 30 -21 0 -8 9 -14 20 -14 11 0 20 -7 20 -15 0 -9 11 -21 25 -27 18 -8 22
-14 14 -24 -6 -8 -7 -14 0 -18 14 -9 2 -36 -15 -36 -8 0 -14 -5 -14 -11 0 -13
-46 -59 -59 -59 -5 0 -19 -11 -32 -25 -29 -30 -59 -33 -59 -5 0 11 -5 20 -11
20 -8 0 -8 5 1 15 7 8 21 15 31 15 11 0 19 7 19 16 0 9 13 21 29 27 16 6 32
18 34 27 4 17 -32 60 -50 60 -6 0 -23 12 -38 26 -20 19 -25 28 -16 37 6 6 11
19 11 29 0 10 7 18 15 18 8 0 15 -6 15 -14z m6795 5 c-3 -6 2 -14 12 -20 12
-6 17 -19 15 -40 -3 -34 4 -37 58 -21 56 16 62 12 107 -83 15 -32 22 -37 42
-32 23 6 23 5 16 -41 -4 -26 -14 -59 -23 -73 -28 -43 -81 -93 -92 -86 -5 3
-10 1 -10 -6 0 -8 -10 -9 -31 -5 -31 6 -84 -18 -74 -35 9 -13 -37 -37 -65 -34
-14 1 -30 3 -36 4 -6 0 -25 21 -43 46 -33 46 -51 51 -51 14 0 -17 -6 -20 -34
-18 -30 3 -40 -3 -76 -44 -39 -43 -45 -47 -89 -47 -33 0 -57 -7 -83 -25 -26
-17 -50 -25 -82 -25 -57 0 -76 -8 -76 -30 0 -10 -7 -21 -15 -24 -18 -6 -114
12 -130 25 -6 4 -23 10 -39 13 -16 3 -36 12 -45 20 -23 20 -88 36 -122 29 -19
-3 -42 2 -68 16 -40 20 -41 20 -51 1 -6 -11 -15 -20 -21 -20 -6 0 -18 -7 -26
-16 -18 -17 -56 -12 -80 11 -19 20 -22 19 -50 -7 -27 -25 -109 -40 -206 -38
-33 0 -65 -4 -72 -10 -20 -17 -86 -2 -130 29 -31 22 -45 27 -58 20 -9 -6 -17
-15 -17 -21 0 -6 -7 -20 -17 -30 -24 -27 -82 -23 -123 7 -19 14 -36 25 -39 25
-3 0 -26 -19 -50 -41 l-44 -41 -68 7 c-66 7 -71 6 -117 -24 -27 -17 -62 -31
-77 -31 -35 0 -97 -21 -110 -37 -9 -12 -37 -19 -142 -39 -29 -6 -34 -3 -44 22
-6 16 -15 37 -20 46 -5 10 -9 29 -9 43 0 14 -4 25 -10 25 -5 0 -10 -6 -10 -13
0 -20 -41 -36 -68 -26 -39 15 -54 70 -50 182 2 81 6 100 21 108 9 6 17 17 17
24 0 8 4 15 10 15 5 0 12 11 16 24 4 16 12 24 24 23 10 0 16 -6 13 -13 -2 -7
0 -15 6 -19 6 -3 11 -14 11 -25 0 -32 33 -34 57 -3 13 15 23 31 23 34 0 7 4 8
80 34 51 17 90 19 90 6 0 -15 59 -41 66 -30 17 28 164 44 172 19 6 -16 30 -12
40 7 6 10 22 16 43 16 19 -1 53 6 76 14 28 10 57 13 87 9 31 -5 56 -2 81 9 46
18 97 20 94 3 -4 -21 12 -68 23 -68 5 0 30 20 56 44 47 43 112 67 112 40 0
-31 99 -16 136 21 21 21 104 21 104 0 0 -26 25 -16 65 25 24 24 48 40 63 40
13 0 21 -4 18 -9 -4 -5 12 -7 36 -4 29 4 39 3 34 -5 -4 -6 0 -25 9 -41 13 -27
18 -29 52 -24 21 3 40 10 43 14 3 4 40 10 83 12 57 3 85 9 105 23 33 25 109
64 122 64 6 0 10 -6 10 -13 0 -8 11 -20 25 -27 21 -11 27 -11 42 3 10 8 30 19
46 22 15 4 29 11 32 15 6 9 53 1 61 -11 10 -17 73 -10 94 11 22 22 46 18 53
-11 9 -32 42 -22 90 29 64 67 72 73 86 59 8 -8 21 -3 48 16 36 26 80 37 68 18z
m-7538 -49 l-3 -39 42 1 c23 1 46 -2 50 -7 10 -10 -35 -51 -58 -52 -27 -2 -29
-7 -32 -80 -2 -49 1 -68 11 -72 7 -3 13 -11 13 -19 0 -9 12 -14 35 -14 28 0
35 -4 35 -19 0 -20 -34 -31 -96 -31 -46 0 -66 43 -62 136 3 60 0 72 -19 93
-30 31 -29 49 1 57 15 3 23 11 20 19 -3 7 0 16 5 20 6 3 8 11 5 17 -8 12 14
28 38 28 15 0 17 -7 15 -38z m-838 9 c9 -6 10 -10 2 -16 -9 -5 -9 -10 0 -21 9
-11 9 -17 -1 -29 -10 -12 -10 -15 0 -15 7 0 10 -7 6 -15 -4 -12 5 -15 54 -15
52 0 60 -2 60 -19 0 -10 6 -21 13 -24 8 -3 14 -29 15 -75 3 -54 -1 -81 -18
-116 -23 -52 -41 -60 -135 -61 l-60 0 2 199 c1 154 4 201 15 207 17 11 29 11
47 0z m574 2 c4 -3 2 -12 -4 -19 -9 -11 -7 -15 5 -20 13 -5 14 -9 4 -21 -10
-13 -8 -15 17 -13 52 4 65 0 65 -15 0 -8 -6 -15 -14 -15 -7 0 -17 -10 -21 -22
-6 -20 -8 -20 -12 -5 -6 21 -23 23 -23 2 0 -8 -4 -15 -9 -15 -5 0 -8 -17 -6
-37 1 -21 -2 -44 -7 -50 -7 -9 -7 -13 1 -13 8 0 10 -8 6 -20 -4 -11 -2 -20 4
-20 6 0 11 -7 11 -15 0 -10 10 -15 34 -15 19 0 38 -5 42 -11 12 -20 -15 -32
-78 -33 -50 -1 -63 2 -63 14 0 8 -4 21 -9 29 -5 8 -10 48 -10 90 -1 63 -4 76
-19 79 -9 2 -17 7 -17 10 0 4 -3 17 -6 28 -4 17 0 23 21 28 14 4 23 11 20 16
-3 5 5 16 17 24 20 14 20 16 4 22 -14 5 -15 9 -4 15 16 10 42 12 51 2z m-743
-13 c13 -9 13 -12 -2 -21 -12 -7 -18 -22 -18 -49 0 -29 -4 -40 -15 -40 -9 0
-15 -9 -15 -22 0 -13 -6 -35 -14 -49 -7 -14 -16 -37 -20 -52 -3 -15 -11 -27
-17 -27 -6 0 -7 -4 -4 -10 3 -5 2 -10 -3 -10 -5 0 -13 -20 -16 -45 -5 -29 -12
-45 -22 -45 -10 0 -14 -12 -14 -40 0 -27 -5 -43 -15 -46 -8 -4 -15 -14 -15
-24 0 -26 -21 -39 -48 -29 -19 7 -21 12 -12 29 13 25 6 38 -27 51 -13 5 -21
13 -18 19 3 5 -3 10 -14 10 -12 0 -30 9 -41 20 -11 11 -25 20 -32 20 -7 0 -25
12 -40 27 -33 32 -39 89 -10 100 9 4 36 26 60 50 24 24 50 43 57 43 8 0 19 9
25 20 15 28 30 25 30 -5 0 -17 6 -25 18 -25 15 -1 15 -2 -3 -15 -11 -8 -31
-26 -45 -39 -14 -13 -34 -26 -45 -28 -41 -7 -39 -78 2 -78 16 0 27 -7 30 -20
3 -11 13 -20 23 -20 10 0 23 -7 30 -15 17 -20 50 -19 50 1 0 15 20 66 41 106
5 10 9 25 9 33 0 8 4 15 9 15 5 0 11 15 15 33 3 17 15 50 25 72 11 22 27 57
36 78 16 38 36 46 65 27z m1610 -10 c0 -11 7 -20 15 -20 24 0 17 -228 -8 -242
-10 -5 -26 -6 -37 -3 -19 6 -20 14 -18 105 3 107 -5 128 -37 104 -16 -12 -20
-29 -23 -112 -4 -100 -10 -114 -47 -110 -19 3 -20 11 -21 141 -1 131 0 138 20
142 40 9 71 12 114 14 36 1 42 -2 42 -19z m-286 -6 c9 -3 16 -12 16 -19 0 -7
6 -15 13 -18 25 -10 25 -178 0 -198 -7 -6 -13 -17 -13 -24 0 -15 -67 -44 -95
-40 -42 5 -63 18 -75 43 -7 15 -16 34 -20 42 -9 20 -3 101 10 132 8 19 17 35
38 68 2 2 24 7 50 11 26 3 50 7 54 8 3 0 13 -2 22 -5z m-734 -71 c2 -2 -2 -8
-10 -13 -11 -7 -11 -11 -1 -23 9 -11 9 -17 0 -22 -8 -6 -8 -9 1 -15 7 -5 9
-13 5 -21 -12 -18 -14 -69 -3 -69 5 0 6 -5 2 -12 -11 -17 -13 -68 -3 -68 5 0
9 -4 9 -9 0 -10 -46 -29 -75 -30 -11 0 -35 -3 -52 -7 -46 -9 -79 2 -88 28 -7
22 -8 97 -2 148 2 14 -1 31 -6 38 -7 8 -6 17 1 24 6 6 8 17 5 24 -6 16 39 36
62 28 17 -7 20 -20 5 -29 -8 -5 -8 -11 0 -20 8 -10 8 -15 0 -20 -8 -5 -9 -10
-1 -18 7 -7 7 -14 0 -23 -7 -8 -7 -14 1 -19 8 -5 8 -10 0 -20 -8 -10 -8 -15 0
-20 8 -5 8 -10 0 -20 -7 -9 -8 -15 -1 -19 6 -4 8 -13 4 -21 -3 -10 2 -15 16
-15 31 0 44 40 46 144 2 73 6 92 21 103 16 11 49 9 64 -4z m6920 13 c0 -3 -4
-8 -10 -11 -5 -3 -10 -1 -10 4 0 6 5 11 10 11 6 0 10 -2 10 -4z m60 -76 c0 -5
-7 -10 -16 -10 -8 0 -12 5 -9 10 3 6 10 10 16 10 5 0 9 -4 9 -10z m-6744 -137
c-10 -10 -19 5 -10 18 6 11 8 11 12 0 2 -7 1 -15 -2 -18z m-31 7 c3 -5 1 -10
-4 -10 -6 0 -11 5 -11 10 0 6 2 10 4 10 3 0 8 -4 11 -10z m4467 -60 c2 -6 22
-11 45 -13 37 -2 44 -6 61 -39 22 -39 21 -54 -2 -165 -17 -80 -46 -119 -94
-129 -17 -4 -50 -24 -72 -45 -22 -22 -49 -39 -60 -39 -19 0 -60 -36 -60 -52 0
-4 -5 -8 -11 -8 -7 0 -17 -6 -23 -14 -6 -8 -35 -16 -64 -19 -31 -2 -48 -1 -40
4 10 7 9 9 -5 9 -10 0 -20 6 -23 14 -3 8 -12 12 -20 9 -8 -3 -14 0 -14 6 0 6
-7 8 -15 5 -10 -4 -15 0 -16 12 0 18 -1 17 -9 -1 -9 -20 -9 -20 -15 2 -4 13
-12 20 -21 16 -8 -3 -14 0 -14 7 0 6 -4 9 -9 6 -5 -3 -24 -1 -42 6 -25 9 -34
9 -37 0 -5 -16 -39 -15 -94 2 -41 12 -47 12 -57 -3 -14 -19 -51 -25 -51 -9 0
5 -7 8 -15 4 -8 -3 -15 -2 -15 2 0 5 -14 7 -30 6 -17 -1 -33 2 -36 7 -10 18
-44 9 -77 -21 -39 -34 -44 -35 -66 -16 -30 25 -56 27 -80 5 -19 -18 -26 -19
-53 -10 -39 14 -38 14 -38 -7 0 -20 -9 -23 -84 -25 -33 -1 -51 3 -54 12 -4 11
-6 11 -13 0 -8 -12 -11 -12 -18 1 -6 8 -13 11 -17 7 -4 -4 -13 -2 -21 4 -10 9
-13 8 -13 -1 0 -23 -44 -49 -84 -50 -46 0 -116 42 -116 71 0 9 -5 19 -11 21
-6 2 -13 25 -16 50 -5 46 -6 46 -26 28 -17 -16 -19 -27 -13 -68 7 -52 0 -86
-15 -76 -5 3 -9 -1 -9 -9 0 -14 -52 -57 -69 -57 -6 0 -22 11 -37 25 -14 13
-30 22 -35 20 -4 -3 -12 3 -18 12 -9 16 -10 16 -11 -4 0 -27 -19 -31 -21 -5
-1 16 -2 16 -6 0 -2 -10 -11 -18 -18 -18 -8 0 -17 -9 -20 -20 -4 -13 -15 -20
-32 -20 -34 0 -95 21 -108 37 -11 14 -43 12 -53 -3 -4 -5 -20 -16 -37 -24 -45
-22 -62 -41 -69 -77 -9 -38 -47 -57 -91 -45 -26 7 -31 15 -41 60 -7 29 -8 52
-4 52 4 0 10 66 12 148 3 81 8 154 12 164 9 19 26 24 118 33 64 7 68 6 93 -21
l25 -27 35 33 c30 29 43 34 93 38 45 3 62 0 74 -12 9 -9 23 -16 32 -16 8 0 17
-10 19 -22 3 -15 5 -9 6 14 1 24 7 41 19 47 28 14 199 25 206 12 11 -17 48
-13 70 8 13 12 44 22 78 26 50 6 58 5 74 -14 24 -27 36 -27 74 5 41 35 109 43
153 19 32 -17 33 -17 69 8 44 29 151 45 174 26 19 -16 53 2 83 42 17 22 30 29
56 29 18 0 37 -4 40 -10 3 -5 15 -10 25 -10 10 0 32 -11 48 -25 l29 -24 37 25
c47 32 126 43 145 20 20 -24 55 -20 118 14 59 32 128 40 161 19 15 -9 30 -7
73 9 60 23 96 27 101 12z m436 -103 c-9 -7 -18 -24 -20 -37 -4 -30 -44 -41
-54 -15 -9 22 34 64 66 64 22 0 23 -1 8 -12z m-2831 -86 c12 -43 2 -71 -25
-71 -10 0 -23 -5 -30 -12 -9 -9 -21 -8 -52 2 -34 11 -40 17 -40 41 0 15 4 39
10 53 9 24 14 26 69 26 l59 0 9 -39z m-1151 -170 c-4 -31 -12 -58 -17 -62 -6
-4 -14 -28 -16 -55 -3 -27 -9 -54 -14 -60 -5 -6 -14 -35 -20 -65 -13 -62 -43
-99 -79 -99 -31 1 -63 40 -49 61 5 8 9 41 9 73 0 61 -8 73 -13 20 -2 -26 -17
-66 -50 -134 -18 -35 -53 -38 -61 -6 -6 25 0 70 13 91 3 6 6 16 8 24 1 8 5 26
9 40 4 14 6 30 5 35 -1 4 4 14 10 22 6 8 8 14 4 14 -4 0 -3 6 3 13 5 6 15 38
22 70 13 65 30 80 88 75 36 -3 37 -4 40 -48 5 -67 19 -70 32 -5 9 42 17 58 33
64 37 15 50 -6 43 -68z m721 43 c5 -15 18 -16 99 -10 54 4 95 2 98 -3 8 -13
-4 -41 -18 -41 -6 0 -28 -8 -49 -19 -20 -10 -34 -15 -31 -10 3 5 -2 9 -10 9
-9 0 -16 -4 -16 -8 0 -5 -11 -14 -25 -20 -14 -6 -25 -17 -25 -23 0 -9 21 -10
75 -6 80 7 105 3 105 -19 0 -25 -69 -45 -143 -42 -50 2 -72 -1 -75 -10 -2 -6
-8 -10 -13 -6 -5 3 -10 -1 -11 -8 -5 -50 -17 -78 -31 -72 -7 2 -17 -6 -22 -18
-13 -29 -74 -38 -87 -14 -5 9 -15 16 -22 16 -8 0 -16 9 -19 20 -6 22 -37 28
-37 7 0 -7 -8 -19 -18 -28 -14 -12 -21 -12 -42 -2 -22 11 -27 10 -38 -6 -11
-16 -19 -18 -37 -11 -29 11 -54 7 -65 -9 -5 -9 -13 -10 -26 -3 -23 12 -74 13
-74 1 0 -4 -13 -6 -29 -4 -18 2 -31 -2 -35 -10 -3 -8 -13 -14 -23 -14 -10 0
-30 -3 -46 -7 -42 -10 -79 34 -76 90 4 54 64 116 112 116 18 0 38 4 46 9 23
15 2 31 -40 31 -36 0 -39 2 -39 29 0 40 18 51 98 58 l70 6 17 -37 c19 -39 35
-47 35 -17 0 11 5 23 10 26 6 4 8 10 5 15 -9 15 51 29 140 32 l90 3 3 -27 c2
-16 5 -28 8 -28 4 0 32 23 70 58 32 28 131 33 141 6z m-1841 -76 c-3 -23 -11
-45 -18 -49 -6 -4 -15 -38 -20 -75 -4 -37 -13 -71 -21 -75 -7 -5 -14 -33 -15
-74 -2 -46 0 -65 7 -60 6 3 9 10 6 15 -3 5 -1 11 5 15 5 3 10 -3 10 -14 0 -14
6 -21 20 -21 25 0 26 -18 3 -27 -10 -4 -21 -11 -24 -16 -10 -15 -97 -21 -113
-8 -20 17 -7 153 15 167 5 3 7 10 3 15 -3 5 -1 15 4 22 5 7 14 35 21 62 7 28
14 57 17 66 3 12 -1 16 -13 15 -9 0 -22 10 -29 24 -22 41 2 55 104 59 l44 1
-6 -42z m814 -48 c0 -43 -5 -46 -84 -40 -23 1 -28 -1 -22 -15 3 -9 6 -21 6
-27 0 -6 11 -8 25 -6 31 6 35 1 40 -62 4 -48 2 -52 -42 -95 -42 -42 -49 -45
-100 -45 -66 0 -98 23 -87 64 7 31 17 38 56 42 19 3 31 -2 34 -11 9 -21 32
-18 39 5 7 21 -2 43 -13 36 -11 -7 -59 37 -66 61 -4 12 -2 24 4 28 5 3 10 15
10 25 0 10 6 23 13 27 8 4 16 16 20 25 6 17 34 23 125 26 l42 2 0 -40z m-242
-4 c2 -9 -3 -16 -11 -16 -8 0 -17 -14 -21 -31 -4 -23 -9 -29 -18 -22 -15 11
-72 11 -75 1 -9 -27 -1 -38 27 -38 17 0 30 -4 30 -10 0 -22 2 -25 20 -32 19
-7 18 -38 -1 -38 -4 0 -11 -15 -15 -34 -9 -53 -63 -86 -141 -86 -67 0 -79 12
-64 68 6 21 14 28 39 30 24 2 32 -1 32 -12 0 -22 36 -20 44 2 3 9 8 22 11 27
3 6 -4 11 -15 12 -11 1 -31 10 -45 20 -23 16 -25 24 -21 62 2 26 10 48 20 53
9 5 16 18 16 28 0 20 19 26 100 33 61 5 85 1 88 -17z m-298 -31 c0 -14 3 -24
8 -22 7 2 12 -6 12 -24 0 -5 -4 -8 -9 -5 -4 3 -11 -22 -15 -55 -3 -33 -13 -70
-21 -82 -8 -12 -15 -33 -15 -47 0 -32 -10 -46 -37 -54 -18 -6 -23 -3 -23 11
-1 16 -2 16 -13 3 -7 -8 -21 -16 -32 -18 -75 -9 -84 -8 -99 10 -18 20 -21 63
-6 73 6 3 10 15 10 27 0 11 8 22 20 25 11 3 20 14 20 24 0 14 11 19 48 24 67
9 82 15 79 28 -4 20 -19 26 -59 21 l-39 -5 3 38 c3 36 5 38 43 44 22 3 59 7
83 8 39 1 42 -1 42 -24z m-499 -25 c5 0 9 -7 9 -15 0 -8 -7 -15 -16 -15 -9 0
-14 -6 -11 -13 11 -29 -36 -59 -54 -34 -7 10 -51 -6 -72 -28 -10 -10 -17 -32
-17 -56 0 -28 -4 -39 -15 -39 -8 0 -15 -4 -15 -10 0 -5 7 -7 15 -4 10 4 15 0
15 -15 0 -12 4 -21 10 -21 5 0 7 7 4 15 -4 10 0 15 12 16 78 6 74 8 74 -32 0
-39 -7 -44 -75 -57 -65 -12 -99 -8 -110 14 -6 12 -16 28 -23 36 -6 8 -9 18 -6
21 3 3 8 22 11 42 3 20 10 46 17 58 36 64 52 87 62 87 7 0 19 11 28 24 13 20
26 26 68 29 29 2 59 2 66 0 8 -2 18 -3 23 -3z m-632 -59 c10 -6 10 -10 1 -16
-9 -6 -9 -9 1 -16 10 -6 14 -38 15 -124 1 -114 1 -117 -23 -128 -17 -8 -29 -8
-41 0 -14 8 -16 25 -14 104 3 108 -4 128 -37 108 -18 -12 -21 -24 -22 -94 -1
-44 0 -90 1 -102 1 -16 -6 -26 -24 -33 -52 -19 -56 -10 -56 140 0 99 4 141 13
148 21 17 163 27 186 13z m-299 -26 c6 -3 10 -12 10 -20 0 -7 5 -15 10 -17 6
-2 12 -46 14 -98 2 -52 7 -102 10 -111 9 -21 -14 -39 -55 -44 -142 -19 -145
-18 -163 6 -22 31 -20 71 4 119 18 36 24 40 70 46 28 4 53 11 57 17 11 19 -28
37 -67 31 -34 -6 -38 -4 -44 21 -4 16 -3 32 3 38 20 20 124 29 151 12z m-238
-42 c20 -51 22 -58 22 -131 1 -43 -4 -76 -10 -80 -6 -4 -14 -17 -18 -29 -4
-13 -13 -23 -21 -23 -7 0 -15 -5 -17 -11 -2 -5 -18 -11 -36 -11 -36 -1 -57
-20 -49 -43 4 -8 2 -17 -2 -19 -5 -3 -11 -19 -15 -37 -5 -26 -9 -29 -28 -23
-48 14 -49 18 -47 185 1 165 9 226 31 240 7 5 50 9 96 9 81 0 83 -1 94 -27z
m-566 -18 c7 -27 -1 -57 -13 -53 -4 1 -21 -10 -37 -25 -16 -15 -35 -27 -42
-27 -9 0 -14 -12 -14 -31 0 -22 5 -32 20 -36 11 -3 20 -9 20 -13 0 -4 16 -15
35 -24 31 -15 34 -20 28 -49 -3 -18 -7 -34 -9 -35 -11 -14 -188 97 -198 124
-11 28 13 84 35 84 11 0 19 7 19 16 0 9 14 21 30 27 17 6 32 18 35 27 4 13 42
32 77 39 4 0 10 -10 14 -24z m282 2 c2 -10 1 -29 -2 -42 -6 -22 -9 -23 -42
-13 -20 5 -42 7 -50 4 -24 -9 2 -46 32 -46 29 0 84 -54 84 -84 0 -34 -32 -94
-54 -101 -72 -24 -132 -27 -150 -9 -20 20 -21 68 -1 84 13 11 21 10 43 -1 15
-7 30 -15 35 -17 4 -2 7 10 7 27 0 22 -4 29 -17 28 -14 -1 -73 29 -73 37 0 0
-4 15 -9 32 -11 38 17 109 46 117 10 3 47 4 83 4 54 -2 65 -5 68 -20z m-637
-667 c26 -14 28 -99 3 -96 -25 2 -28 -21 -5 -29 20 -6 21 -14 21 -119 l0 -112
33 -9 c25 -8 33 -16 35 -38 2 -19 -1 -27 -10 -26 -7 1 -26 -3 -41 -9 -15 -7
-53 -14 -83 -18 -45 -4 -59 -2 -75 12 -28 25 -25 62 6 70 34 8 46 33 43 89 -1
35 -8 52 -30 76 -21 21 -28 38 -26 57 3 25 7 27 51 30 45 3 62 17 33 28 -21 8
-27 32 -20 70 7 36 27 44 65 24z m-211 -30 c12 -8 15 -44 17 -206 1 -109 -2
-205 -7 -215 -6 -11 -19 -16 -35 -14 -14 1 -28 -2 -31 -7 -3 -5 -12 -7 -20 -4
-7 3 -16 1 -18 -3 -8 -13 -84 -5 -102 9 -51 43 -67 139 -36 221 24 63 52 95
92 104 57 12 70 23 70 57 0 32 24 68 44 68 6 0 18 -5 26 -10z m-307 -24 c10
-25 -5 -96 -19 -96 -9 0 -14 -12 -14 -34 0 -42 -9 -68 -21 -61 -5 3 -11 -6
-14 -20 -3 -14 -7 -36 -10 -50 -3 -14 -9 -23 -14 -21 -10 6 -21 -27 -21 -62 0
-12 -7 -25 -15 -28 -8 -4 -15 -16 -15 -28 0 -39 -12 -67 -26 -62 -10 4 -14 -4
-14 -27 0 -50 -10 -58 -49 -40 -18 9 -38 27 -43 39 -10 20 -106 93 -125 95
-16 1 -55 45 -69 77 -16 39 -5 77 25 87 12 3 21 15 21 26 0 13 7 19 24 19 14
0 30 10 40 26 15 21 23 25 59 22 35 -3 43 -7 45 -26 2 -13 1 -31 -3 -40 -5
-14 -7 -14 -16 -2 -7 12 -10 11 -15 -7 -4 -13 -12 -23 -19 -23 -7 0 -16 -7
-19 -16 -4 -9 -13 -14 -21 -10 -26 10 -18 -40 9 -58 49 -31 97 -56 111 -56 7
0 17 15 20 33 4 17 13 39 20 47 7 8 16 29 20 47 3 17 12 37 20 43 7 6 16 25
19 43 6 33 38 101 70 150 19 29 50 36 59 13z m1002 -7 c4 -5 17 -15 28 -20 40
-18 72 -38 82 -52 5 -7 18 -16 29 -20 29 -11 16 -79 -23 -119 -17 -18 -31 -29
-31 -25 0 3 -14 -7 -32 -23 -17 -16 -35 -27 -40 -24 -4 3 -8 -2 -8 -10 0 -37
-45 -28 -54 11 -6 20 1 32 31 62 21 21 46 40 56 44 20 8 24 57 4 57 -26 0 -86
54 -87 78 0 36 31 65 45 41z m-116 -38 c15 -10 8 -57 -15 -103 -8 -15 -14 -40
-14 -57 0 -16 -4 -32 -8 -35 -5 -3 -14 -30 -21 -60 -11 -51 -15 -56 -46 -62
-69 -13 -81 2 -118 146 -10 41 -20 93 -20 115 l-2 40 40 0 c34 0 40 -3 43 -22
2 -13 7 -23 12 -23 5 0 12 -22 16 -50 6 -48 24 -61 24 -17 0 12 10 47 22 79
20 49 27 58 48 58 14 0 31 -4 39 -9z m-2429 -841 c34 -18 88 -99 95 -142 4
-23 14 -48 21 -56 9 -9 14 -37 14 -82 0 -74 -8 -110 -20 -90 -4 6 -10 -16 -14
-50 -6 -52 -9 -60 -22 -50 -11 10 -14 8 -14 -11 0 -13 -4 -30 -9 -38 -7 -11
-11 -10 -20 5 -9 17 -10 16 -11 -8 0 -54 -10 -60 -36 -22 -29 42 -32 94 -6
101 12 3 18 15 19 36 2 51 9 96 14 102 7 6 -7 116 -20 165 -5 19 -14 53 -20
74 -7 26 -7 44 -1 51 6 7 7 15 3 18 -10 10 6 8 27 -3z m338 -133 c11 -13 16
-46 14 -86 -2 -20 -4 -21 -17 -11 -12 10 -15 10 -15 -4 0 -27 -14 -18 -42 25
-22 34 -25 45 -16 65 12 27 58 33 76 11z m-14 -162 c34 -25 42 -175 10 -175
-9 0 -14 -12 -14 -34 0 -19 -3 -37 -7 -39 -5 -3 -26 12 -47 33 -38 38 -39 40
-28 77 6 21 9 47 6 58 -3 11 2 37 11 58 16 40 37 46 69 22z m-1524 -656 c41
-15 70 -68 70 -128 0 -28 7 -66 16 -82 8 -17 13 -36 10 -42 -2 -7 -5 -3 -6 8
l-1 20 -9 -20 c-5 -11 -9 -73 -9 -137 -1 -66 -5 -119 -11 -123 -5 -3 -10 0
-11 7 0 7 -5 -2 -10 -19 -10 -35 -28 -44 -30 -15 0 11 -5 7 -14 -12 l-12 -30
-8 25 c-4 13 -19 39 -33 58 -23 30 -24 34 -9 42 13 8 16 26 17 97 0 48 0 105
1 127 0 22 -2 68 -5 102 -2 35 0 65 4 68 5 3 4 20 -1 38 -12 41 -12 40 9 32 9
-4 28 -11 42 -16z m5147 -1007 c6 -4 15 -20 18 -35 15 -57 -82 -105 -99 -49
-10 31 9 76 35 83 33 10 33 10 46 1z m-773 -44 c3 -13 6 -40 6 -60 0 -21 5
-38 11 -38 6 0 9 -7 5 -15 -3 -8 -2 -15 2 -15 5 0 13 -27 20 -59 20 -94 37
-95 36 -1 -3 145 6 156 137 166 93 7 95 6 104 -59 3 -19 13 -33 19 -26 3 2 6
24 9 48 2 24 10 46 16 51 18 11 180 32 191 25 6 -3 10 -13 10 -21 0 -8 6 -13
13 -12 9 2 12 -25 12 -110 0 -98 -2 -115 -17 -123 -10 -6 -18 -17 -18 -25 0
-8 -10 -18 -22 -23 -47 -19 -63 -24 -70 -23 -5 1 -8 -13 -8 -31 0 -36 -30 -79
-63 -90 -10 -4 -29 0 -42 9 -22 14 -23 21 -20 77 2 34 7 84 10 110 7 57 -10
57 -20 -1 -10 -56 -47 -94 -101 -100 l-44 -5 0 -46 c0 -59 -8 -70 -52 -77 -31
-6 -37 -3 -44 17 -4 13 -7 38 -7 56 1 30 0 31 -41 31 -25 -1 -53 6 -67 15 -35
25 -65 21 -91 -13 -17 -24 -29 -30 -59 -30 -21 0 -41 5 -45 12 -12 20 -5 80
11 92 9 6 18 34 22 66 3 30 10 61 16 68 5 6 6 12 2 12 -4 0 -3 6 3 13 6 6 13
30 17 52 4 22 12 46 18 53 5 6 6 12 1 12 -5 0 5 9 21 20 18 12 47 20 71 20 35
0 43 -4 48 -22z m-876 -216 c3 -168 8 -192 45 -192 82 0 44 -69 -42 -78 -41
-4 -53 -1 -73 17 -22 21 -23 31 -27 158 -3 136 -3 137 -32 162 -19 16 -29 35
-29 53 0 24 5 28 38 33 20 4 44 8 52 10 8 2 26 2 40 2 l25 -2 3 -163z m272
139 c0 -38 11 -51 46 -51 31 0 34 -2 34 -31 0 -25 -6 -32 -35 -45 -22 -9 -35
-21 -36 -34 -1 -11 -2 -39 -3 -62 l-1 -43 50 -6 c28 -3 41 -7 30 -8 -19 -2
-19 -3 3 -11 27 -11 28 -21 5 -47 -21 -22 -88 -42 -118 -34 -54 15 -58 24 -58
109 0 76 -2 83 -29 108 -38 37 -37 69 2 83 17 5 31 18 32 28 0 10 2 24 2 31 3
33 76 45 76 13z m1395 -72 c4 -17 0 -41 -9 -61 -9 -18 -18 -48 -20 -67 -5 -48
-41 -73 -74 -52 -10 6 -11 17 -4 42 5 19 7 50 5 69 -6 46 11 88 39 99 34 12
56 2 63 -30z m-1847 -195 c3 -158 -1 -167 -68 -177 -19 -3 -55 -8 -80 -12 -37
-6 -50 -3 -70 13 -23 19 -24 24 -24 145 1 87 5 131 14 142 15 18 80 20 81 3 1
-7 2 -17 4 -23 1 -5 3 -52 3 -104 2 -93 2 -94 21 -75 14 16 19 41 23 118 6
107 12 118 63 114 l30 -3 3 -141z m-334 100 c9 -3 16 -12 16 -19 0 -7 6 -15
14 -18 10 -4 15 -32 18 -101 2 -53 9 -101 15 -107 9 -9 8 -15 -2 -25 -7 -8
-15 -18 -17 -24 -1 -5 -16 -11 -33 -14 -16 -2 -38 -7 -48 -11 -11 -4 -45 -8
-77 -9 -70 -1 -89 16 -90 80 0 74 41 123 103 124 15 0 27 4 27 9 0 6 -15 7
-33 4 -37 -6 -61 14 -72 59 -8 31 5 37 100 48 33 4 61 8 62 9 1 0 8 -2 17 -5z"/>
<path d="M6007 12652 c-23 -26 -21 -42 6 -42 30 0 53 15 37 25 -6 4 -9 13 -6
21 8 20 -18 17 -37 -4z"/>
<path d="M6547 11973 c-8 -8 -9 -137 -1 -145 3 -3 14 -3 25 -1 35 9 58 93 33
114 -7 6 -10 17 -7 25 3 10 -2 14 -19 14 -14 0 -28 -3 -31 -7z"/>
<path d="M10776 11801 c-4 -7 -5 -15 -2 -18 9 -9 19 4 14 18 -4 11 -6 11 -12
0z"/>
<path d="M10994 11786 c-3 -8 -1 -34 4 -58 l9 -43 8 43 c5 30 11 39 16 30 6
-9 9 -6 9 10 0 13 -4 20 -10 17 -5 -3 -10 -1 -10 4 0 16 -20 13 -26 -3z"/>
<path d="M7367 11870 c-24 -28 -22 -67 5 -81 35 -19 57 22 42 79 -8 27 -24 28
-47 2z"/>
<path d="M5990 11865 c-15 -28 -13 -32 15 -37 16 -2 21 3 23 30 4 39 -18 44
-38 7z"/>
<path d="M7088 11869 c-13 -14 -18 -36 -18 -82 0 -57 2 -65 24 -75 20 -9 26
-7 45 18 26 35 30 115 6 124 -8 3 -15 12 -15 21 0 20 -21 18 -42 -6z"/>
<path d="M7900 11848 c0 -39 14 -47 54 -32 34 13 8 70 -31 70 -20 0 -23 -6
-23 -38z"/>
<path d="M15140 8154 c0 -8 5 -12 10 -9 6 3 10 10 10 16 0 5 -4 9 -10 9 -5 0
-10 -7 -10 -16z"/>
<path d="M9916 8134 c-10 -26 -7 -34 14 -34 23 0 26 15 6 35 -12 12 -15 12
-20 -1z"/>
<path d="M9656 8125 c-3 -9 -6 -39 -6 -66 0 -45 2 -49 24 -49 20 0 24 6 28 39
2 21 1 49 -2 62 -7 28 -35 37 -44 14z"/>
<path d="M9892 7911 c-11 -7 -10 -10 3 -15 29 -11 55 -7 55 9 0 16 -36 20 -58
6z"/>
<path d="M9157 8114 c-22 -30 -24 -129 -2 -138 36 -13 63 105 32 145 -11 15
-14 14 -30 -7z"/>
<path d="M8160 8090 c0 -11 -7 -20 -15 -20 -8 0 -15 -9 -15 -20 0 -17 6 -20
36 -18 38 2 58 25 44 48 -5 8 -6 18 -4 22 3 4 -6 8 -20 8 -19 0 -26 -5 -26
-20z"/>
<path d="M8190 7910 c0 -5 5 -10 11 -10 5 0 7 5 4 10 -3 6 -8 10 -11 10 -2 0
-4 -4 -4 -10z"/>
<path d="M4794 7939 c-26 -9 -34 -45 -27 -116 5 -43 8 -51 19 -42 11 9 14 7
14 -9 0 -12 5 -24 10 -27 6 -3 10 1 10 11 0 9 7 37 17 63 17 50 12 115 -10
124 -6 2 -22 1 -33 -4z"/>
<path d="M7583 7945 c4 -8 2 -17 -3 -20 -5 -3 -8 -14 -7 -25 1 -14 8 -20 24
-20 15 0 21 5 17 13 -3 8 2 20 11 27 25 21 18 40 -16 40 -23 0 -30 -4 -26 -15z"/>
<path d="M6493 7874 c-17 -17 -16 -24 1 -24 15 0 30 27 18 34 -4 2 -13 -2 -19
-10z"/>
<path d="M10400 7376 c0 -19 4 -23 20 -19 11 3 20 14 20 24 0 12 -7 19 -20 19
-14 0 -20 -7 -20 -24z"/>
<path d="M9457 7392 c-23 -25 -21 -34 6 -30 14 2 23 11 25 26 4 27 -9 28 -31
4z"/>
<path d="M9244 7362 c-6 -4 -14 -25 -17 -47 l-6 -40 19 25 c11 14 20 35 20 48
0 24 0 25 -16 14z"/>
<path d="M9144 7332 c-12 -7 -24 -92 -13 -92 8 0 32 75 28 89 -2 5 -9 7 -15 3z"/>
<path d="M8890 7233 c0 -30 2 -33 19 -24 17 10 31 32 31 51 0 4 -11 8 -25 8
-22 0 -25 -5 -25 -35z"/>
<path d="M7840 7200 c0 -13 -7 -20 -19 -20 -14 0 -18 -5 -14 -20 3 -13 14 -20
29 -20 16 0 22 4 18 14 -3 7 2 16 10 19 24 9 20 47 -4 47 -13 0 -20 -7 -20
-20z"/>
<path d="M6455 7124 c-21 -21 -15 -46 11 -50 16 -3 24 3 28 22 11 43 -9 57
-39 28z"/>
<path d="M6187 7221 c-30 -51 -15 -170 21 -156 7 3 17 5 22 5 11 0 30 57 30
90 0 43 -20 90 -39 90 -9 0 -24 -13 -34 -29z"/>
<path d="M16287 7034 c-14 -15 -6 -42 14 -47 17 -5 20 -1 17 21 -3 26 -18 38
-31 26z"/>
<path d="M9391 6524 c0 -11 3 -14 6 -6 3 7 2 16 -1 19 -3 4 -6 -2 -5 -13z"/>
<path d="M7020 6530 c0 -5 -6 -10 -14 -10 -17 0 -22 -13 -25 -73 -4 -69 7
-107 30 -107 10 0 19 7 19 15 0 9 7 18 15 21 19 8 21 98 3 137 -13 27 -28 36
-28 17z"/>
<path d="M8066 6596 c3 -8 1 -17 -5 -21 -6 -3 -11 -15 -11 -25 0 -10 -6 -21
-12 -23 -10 -4 -10 -6 0 -6 15 -1 16 -31 1 -31 -8 0 -8 -4 1 -15 6 -8 9 -18 6
-24 -3 -5 1 -12 10 -15 9 -4 14 -13 10 -21 -3 -9 0 -15 8 -15 27 0 45 12 39
26 -3 8 0 14 6 14 7 0 11 25 11 70 0 40 -4 70 -10 70 -5 0 -10 7 -10 15 0 9
-9 15 -25 15 -17 0 -23 -4 -19 -14z"/>
<path d="M10860 6050 c0 -28 34 -24 37 5 2 11 0 14 -3 7 -5 -10 -9 -10 -20 -1
-11 9 -14 7 -14 -11z"/>
<path d="M9705 5740 c-3 -5 -1 -10 4 -10 6 0 11 5 11 10 0 6 -2 10 -4 10 -3 0
-8 -4 -11 -10z"/>
<path d="M8574 5746 c-9 -36 1 -55 24 -49 22 5 36 52 21 68 -6 5 -9 4 -9 -4 0
-11 -3 -11 -15 -1 -12 10 -15 7 -21 -14z"/>
<path d="M8327 5856 c-14 -11 -19 -31 -22 -80 -1 -37 1 -69 6 -71 4 -3 6 -12
3 -19 -4 -10 2 -12 21 -8 17 3 24 9 21 19 -3 7 1 16 9 19 20 8 21 120 1 140
-17 17 -16 17 -39 0z"/>
<path d="M12992 4760 c0 -19 2 -27 5 -17 2 9 2 25 0 35 -3 9 -5 1 -5 -18z"/>
<path d="M12985 4680 c3 -5 8 -10 11 -10 2 0 4 5 4 10 0 6 -5 10 -11 10 -5 0
-7 -4 -4 -10z"/>
<path d="M7245 5018 c-17 -51 -22 -89 -14 -94 5 -3 9 -11 8 -17 -5 -38 2 -57
21 -57 13 0 20 7 20 19 0 10 6 21 13 24 19 7 23 117 5 128 -19 13 -48 11 -53
-3z"/>
<path d="M8303 5108 c-24 -38 -31 -58 -22 -64 6 -4 6 -11 -2 -20 -9 -11 -9
-14 0 -14 7 0 11 -6 10 -12 0 -7 2 -23 6 -35 9 -29 45 -31 45 -3 0 11 4 20 9
20 16 0 18 93 3 118 -16 24 -37 29 -49 10z"/>
<path d="M11671 4680 c0 -40 2 -42 11 -22 8 16 8 28 0 45 -9 19 -11 17 -11
-23z"/>
<path d="M11701 4704 c0 -11 3 -14 6 -6 3 7 2 16 -1 19 -3 4 -6 -2 -5 -13z"/>
<path d="M10900 4578 c0 -6 -7 -19 -15 -28 -13 -14 -13 -19 1 -38 8 -12 19
-22 23 -22 12 0 21 53 14 79 -6 22 -23 29 -23 9z"/>
<path d="M10471 4434 c0 -11 3 -14 6 -6 3 7 2 16 -1 19 -3 4 -6 -2 -5 -13z"/>
<path d="M8981 4350 l1 -45 8 35 c5 20 5 39 -1 45 -5 5 -9 -8 -8 -35z"/>
<path d="M7786 4194 c-9 -22 -7 -44 2 -44 5 0 9 14 10 30 1 33 -3 38 -12 14z"/>
<path d="M7761 4164 c0 -11 3 -14 6 -6 3 7 2 16 -1 19 -3 4 -6 -2 -5 -13z"/>
<path d="M6413 4073 c-18 -7 -16 -33 3 -33 8 0 12 5 9 10 -3 6 -1 10 4 10 6 0
11 5 11 10 0 11 -7 12 -27 3z"/>
<path d="M6149 4164 c-18 -43 -19 -85 -2 -124 13 -32 16 -33 23 -15 4 12 14
26 22 33 20 17 12 91 -12 116 -19 19 -19 19 -31 -10z"/>
<path d="M5007 3284 c-9 -10 -9 -92 1 -98 17 -11 43 22 38 50 -6 31 -28 58
-39 48z"/>
<path d="M2121 1594 c0 -11 3 -14 6 -6 3 7 2 16 -1 19 -3 4 -6 -2 -5 -13z"/>
<path d="M6910 454 c0 -30 4 -44 12 -42 17 6 26 40 17 66 -14 37 -29 25 -29
-24z"/>
<path d="M6785 480 c3 -5 8 -10 11 -10 2 0 4 5 4 10 0 6 -5 10 -11 10 -5 0 -7
-4 -4 -10z"/>
<path d="M6639 453 c-1 -10 -2 -33 -4 -50 -3 -34 1 -39 21 -25 18 12 24 41 14
67 -11 29 -29 33 -31 8z"/>
<path d="M1262 8740 c0 -14 2 -19 5 -12 2 6 2 18 0 25 -3 6 -5 1 -5 -13z"/>
<path d="M4280 159 c0 -5 5 -7 10 -4 6 3 10 8 10 11 0 2 -4 4 -10 4 -5 0 -10
-5 -10 -11z"/>
<path d="M3436 82 c-2 -4 -1 -14 5 -22 7 -12 9 -10 9 8 0 23 -5 28 -14 14z"/>
<path d="M4130 70 c0 -11 5 -20 10 -20 6 0 10 9 10 20 0 11 -4 20 -10 20 -5 0
-10 -9 -10 -20z"/>
<path d="M3430 20 c0 -11 5 -20 10 -20 6 0 10 9 10 20 0 11 -4 20 -10 20 -5 0
-10 -9 -10 -20z"/>
<path d="M4285 27 c-8 -19 -2 -31 13 -26 5 2 6 13 2 24 -7 19 -8 19 -15 2z"/>
</g>
</svg>
